<?xml version="1.0" standalone="no"?>
<!DOCTYPE svg PUBLIC "-//W3C//DTD SVG 1.1//EN" "http://www.w3.org/Graphics/SVG/1.1/DTD/svg11.dtd" >
<!--
2013-9-30: Created.
-->
<svg>
<metadata>
Created by iconfont
</metadata>
<defs>

<font id="iconfont" horiz-adv-x="1024" >
  <font-face
    font-family="iconfont"
    font-weight="500"
    font-stretch="normal"
    units-per-em="1024"
    ascent="896"
    descent="-128"
  />
    <missing-glyph />
    
    <glyph glyph-name="tengxunweibo" unicode="&#983472;" d="M517.12 890.88q92.16 0 172.544-34.816t140.288-94.72 94.72-140.288 34.816-171.52q0-92.16-34.816-172.544t-94.72-140.288-140.288-94.72-172.544-34.816l-13.312 0q-6.144 0-12.288 1.024l-4.096 0q-15.36 2.048-26.112 13.824t-10.752 28.16q0 17.408 12.288 29.696t29.696 12.288q4.096 0 12.288-2.048l1.024 1.024 11.264 0q73.728 0 139.264 28.16t114.176 76.8 76.8 114.176 28.16 139.264-28.16 139.264-76.8 113.664-114.176 76.288-139.264 28.16-139.264-28.16-113.664-76.288-76.288-113.664-28.16-139.264q0-75.776 29.696-143.36 6.144-9.216 6.144-22.528 0-17.408-12.288-29.696t-29.696-12.288q-11.264 0-19.968 4.608t-14.848 12.8q-20.48 43.008-31.744 90.624t-11.264 99.84q0 91.136 34.816 171.52t94.72 140.288 140.288 94.72 171.52 34.816zM721.92 449.536q0-41.984-15.872-79.36t-43.52-65.024-65.024-44.032-80.384-16.384q-34.816 0-66.048 10.752t-56.832 31.232q-11.264-13.312-28.672-33.28t-36.864-44.544-39.936-51.712-37.888-53.76q-25.6-38.912-47.616-79.36t-38.4-74.24q-19.456-39.936-35.84-77.824l-105.472 4.096q15.36 44.032 37.888 92.16 19.456 40.96 47.616 91.136t67.072 100.352q21.504 27.648 45.056 55.296t46.08 52.224 41.984 44.544 32.768 33.28q-28.672 48.128-28.672 104.448 0 41.984 15.872 79.36t43.52 65.024 65.024 43.52 79.36 15.872q43.008 0 80.384-15.872t65.024-43.52 43.52-65.024 15.872-79.36z"  horiz-adv-x="1024" />

    
    <glyph glyph-name="lanmudaohang" unicode="&#58919;" d="M943.457 797.379c21.709 0 40.122-8.161 55.241-24.494 15.116-16.331 22.683-36.22 22.683-59.667v-64.063c0-23.453-7.562-43.344-22.683-59.675-15.12-16.326-33.533-24.49-55.241-24.49h-862.919c-21.708 0-40.122 8.162-55.241 24.49-15.12 16.332-22.677 36.22-22.677 59.676v64.063c0 23.447 7.557 43.337 22.677 59.667 15.12 16.333 33.533 24.494 55.241 24.494h862.919zM943.457 404.194c21.709 0 40.122-8.161 55.241-24.494 15.116-16.331 22.683-36.22 22.683-59.667v-64.063c0-23.447-7.562-43.338-22.683-59.668-15.12-16.332-33.533-24.494-55.241-24.494h-862.919c-21.708 0-40.122 8.162-55.241 24.494-15.12 16.333-22.677 36.221-22.677 59.668v64.063c0 23.447 7.557 43.337 22.677 59.667 15.12 16.333 33.533 24.494 55.241 24.494h862.919zM943.457 11.009c21.709 0 40.122-8.161 55.241-24.494 15.116-16.325 22.683-36.22 22.683-59.667v-64.063c0-23.447-7.562-43.338-22.683-59.668-15.12-16.331-33.533-24.494-55.241-24.494l-862.919 0.001c-21.708 0-40.122 8.162-55.241 24.494-15.12 16.333-22.677 36.222-22.677 59.668v64.063c0 23.447 7.557 43.344 22.677 59.667 15.12 16.333 33.533 24.494 55.241 24.494l862.919-0.001zM943.457 11.009z"  horiz-adv-x="1024" />

    
    <glyph glyph-name="jinlingyingcaiwangtubiao31" unicode="&#59070;" d="M512.819 179.072l425.882 396.979c-10.624 6.426-22.938 10.342-36.224 10.342h-779.341c-13.286 0-25.6-3.917-36.224-10.342l425.907-396.979zM961.485 19.558c7.142 11.008 11.392 24.064 11.392 38.144v458.291c0 10.522-2.483 20.403-6.63 29.363l-284.442-265.114 279.68-260.685zM59.366 545.382c-4.147-8.96-6.63-18.867-6.63-29.363v-458.291c0-14.080 4.25-27.136 11.392-38.144l279.68 260.659-284.442 265.139zM651.571 252.058l-138.778-129.357-138.778 129.357-278.118-259.251c8.371-3.533 17.587-5.504 27.238-5.504h779.341c9.651 0 18.867 1.971 27.238 5.504l-278.144 259.251z"  horiz-adv-x="1024" />

    
    <glyph glyph-name="weixin" unicode="&#58941;" d="M678.735977 451.680585c10.842952 0 21.50478-0.822738 32.230052-1.99954-28.871561 134.447085-172.570357 234.313583-336.657506 234.313583-183.411263 0-333.650009-124.963083-333.650009-283.746436 0-91.617627 49.962925-166.856215 133.508713-225.300302l-33.349549-100.339266 116.655883 58.449203c41.714054-8.190543 75.18026-16.676821 116.834962-16.676821 10.487865 0 20.857027 0.471744 31.109532 1.236154-6.480598 22.331611-10.310833 45.665039-10.310833 69.996191C395.16555 333.377178 520.308735 451.680585 678.735977 451.680585L678.735977 451.680585zM499.394403 542.122433c25.216311 0 41.771359-16.556071 41.771359-41.655725 0-24.978904-16.556071-41.714054-41.771359-41.714054-24.926716 0-50.022277 16.73515-50.022277 41.714054C449.372126 525.625714 474.409358 542.122433 499.394403 542.122433L499.394403 542.122433zM265.901511 458.752654c-25.041326 0-50.259684 16.73515-50.259684 41.714054 0 25.099654 25.218358 41.655725 50.259684 41.655725 25.038256 0 41.656749-16.496719 41.656749-41.655725C307.55826 475.487803 290.938744 458.752654 265.901511 458.752654L265.901511 458.752654zM983.33944 191.620617c0 133.391033-133.50769 242.094804-283.45377 242.094804-158.77926 0-283.746436-108.763123-283.746436-242.094804 0-133.741004 125.025505-242.09071 283.746436-242.09071 33.232892 0 66.75538 8.306176 100.104929 16.671705l91.496877-50.196239-25.100678 83.424015C933.377538 49.747399 983.33944 116.382029 983.33944 191.620617L983.33944 191.620617zM607.85872 233.393c-16.555048 0-33.348526 16.496719-33.348526 33.349549 0 16.612353 16.793478 33.343409 33.348526 33.343409 25.335015 0 41.772382-16.731056 41.772382-33.343409C649.631102 249.889719 633.192711 233.393 607.85872 233.393L607.85872 233.393zM791.38664 233.393c-16.437367 0-33.168424 16.496719-33.168424 33.349549 0 16.612353 16.671705 33.343409 33.168424 33.343409 25.100678 0 41.772382-16.731056 41.772382-33.343409C833.160045 249.889719 816.488341 233.393 791.38664 233.393L791.38664 233.393zM791.38664 233.393"  horiz-adv-x="1024" />

    
    <glyph glyph-name="htmal5icon06" unicode="&#58914;" d="M424.319032 10.306996 424.319032 275.876444 601.364307 275.876444 601.364307 10.306996 822.671669 10.306996 822.671669 364.39857 955.455881 364.39857 512.841158 762.75223 70.226434 364.39857 203.01167 364.39857 203.01167 10.306996Z"  horiz-adv-x="1024" />

    
    <glyph glyph-name="dingbu" unicode="&#58955;" d="M512 790.303837C287.106782 790.303837 104.905571 608.102625 104.905571 383.209407s182.201212-407.094429 407.094429-407.094429c224.771588 0 407.094429 182.201212 407.094429 407.094429S736.771588 790.303837 512 790.303837L512 790.303837zM403.141466 91.419884c-0.364889-7.905927-4.743556-12.284594-13.136002-13.136002-6.324742 0-11.554816 0.608148-15.568595 1.824445-4.378667 1.581185-6.324742 4.743556-5.959853 9.487112 1.581185 4.743556 4.621927 6.93289 9.000594 6.568001 6.81126-1.581185 9.973631-0.608148 9.608742 3.040741l0 94.262977-11.919705 0c-4.378667 0.364889-6.568001 3.162371-6.568001 8.392446 0.364889 4.743556 2.797482 7.297779 7.176149 7.784297l35.150968 0c2.432593 0 4.013778-0.973037 4.743556-3.040741 1.216296 2.797482 3.40563 4.378667 6.568001 4.743556l79.910678 0c4.378667-0.364889 6.568001-3.162371 6.568001-8.392446-0.364889-5.230075-2.797482-7.905927-7.176149-8.392446l-35.759116 0-2.432593-11.311557 23.231263 0c9.973631 0.364889 14.473928-3.770519 13.74415-12.527854l0-61.422972c-0.364889-4.378667-3.162371-6.81126-8.392446-7.176149-5.230075 0.364889-7.905927 2.797482-8.392446 7.176149l0 55.463119c0 1.216296-0.608148 1.824445-1.824445 1.824445l-42.327117 0c-0.851408-0.364889-1.337926-0.973037-1.824445-1.824445l0-54.246823c-0.364889-4.743556-3.162371-7.419408-8.392446-7.784297-5.230075 0.364889-7.905927 3.040741-8.392446 7.784297l0 60.328305c0 8.392446 3.52726 12.527854 10.703409 12.527854l14.352298 0 3.040741 11.311557-25.055707 0c-2.432593 0-4.986816 0.973037-7.784297 3.040741-1.216296-2.797482-3.40563-4.135408-6.568001-4.135408l-6.568001 0L402.898206 91.419884 403.141466 91.419884zM507.621333 79.500178c-3.162371-4.743556-7.419408-5.594964-12.527854-2.432593-2.797482 1.216296-7.419408 3.770519-13.74415 7.784297-5.959853 3.162371-10.581779 5.351704-13.74415 6.568001-5.959853 2.797482-8.392446 6.203112-7.176149 10.095261-1.216296-1.946074-3.52726-4.378667-7.176149-7.176149l-1.216296-1.216296c-9.122224-7.541038-19.704003-13.500891-31.623708-17.879558-5.594964-1.581185-9.608742-0.243259-11.919705 4.135408-1.581185 4.743556 0 8.392446 4.743556 10.703409 18.244447 7.541038 29.434375 15.082076 33.448153 22.623114 4.378667 7.176149 6.568001 20.433781 6.568001 40.016154 0.364889 5.594964 3.040741 8.514075 7.784297 9.000594 5.108445-0.364889 7.905927-3.40563 8.392446-9.000594 0.729778-20.312151-1.581185-35.759116-7.176149-46.584155 4.013778 4.743556 9.122224 4.986816 15.568595 0.608148 4.743556-2.797482 11.189928-6.324742 19.095855-10.703409 3.52726-2.432593 6.203112-4.013778 7.784297-4.743556C509.445777 88.744031 510.418815 84.730253 507.621333 79.500178L507.621333 79.500178zM582.180306 81.324623l-40.624302 0c-7.541038 0.364889-11.554816 3.770519-11.919705 10.095261L529.636299 124.868037c-0.364889 8.757335 3.52726 12.892743 11.919705 12.527854l41.718969 0c7.541038 0.364889 11.311557-3.770519 11.311557-12.527854l0-34.056301C595.194679 84.486994 590.937641 81.324623 582.180306 81.324623L582.180306 81.324623zM638.859722 86.068179c-6.324742 0-11.311557 0.851408-14.960447 2.432593-4.013778 1.946074-5.230075 5.108445-3.52726 9.608742 1.581185 4.743556 4.986816 6.568001 10.095261 5.351704 10.703409-2.432593 15.325336 1.824445 13.74415 12.527854-0.364889 7.905927-5.716593 17.879558-16.176743 29.799264-3.52726 3.52726-4.135408 9.000594-1.824445 16.176743 4.378667 13.500891 7.419408 23.839411 9.000594 31.01556l-16.055113 0c-1.216296 0-1.946074-0.851408-2.432593-2.432593l0-107.398979c-0.364889-5.230075-3.040741-7.905927-7.784297-8.392446-5.230075 0.364889-7.905927 3.162371-8.392446 8.392446l0 63.247417c-1.216296-1.581185-2.797482-2.432593-4.743556-2.432593l-67.382825 0c-4.378667 0.364889-6.81126 3.162371-7.176149 8.392446 0.364889 5.230075 2.797482 7.905927 7.176149 8.392446L542.772301 160.748783c-0.851408 0.729778-3.52726 5.594964-8.392446 14.352298-1.946074 5.230075-0.608148 8.757335 4.135408 10.703409l-7.176149 0c-4.378667 0.364889-6.81126 3.162371-7.176149 8.392446 0.364889 5.108445 2.797482 7.905927 7.176149 8.392446l21.528448 0c-0.851408 1.216296-1.216296 2.432593-1.216296 3.52726-1.216296 4.013778 0.608148 7.176149 5.351704 9.608742 5.594964 1.946074 9.122224 0.973037 10.703409-3.040741 1.216296-3.52726 2.554223-6.93289 4.135408-10.095261l19.704003 0c4.378667-0.364889 6.81126-3.162371 7.176149-8.392446-0.364889-5.230075-2.797482-7.905927-7.176149-8.392446l-45.976007 0c2.797482-1.581185 6.203112-7.176149 10.095261-16.663262 1.216296-4.013778 0.851408-6.81126-1.216296-8.392446l13.136002 0c0.364889 1.216296 0.973037 2.797482 1.824445 4.743556 2.432593 5.959853 4.013778 10.703409 4.743556 14.352298 1.581185 4.013778 4.986816 5.594964 10.095261 4.743556 4.743556-1.946074 6.568001-5.230075 5.351704-9.608742-0.851408-1.946074-1.581185-4.378667-2.432593-7.176149-1.216296-3.162371-2.189334-5.716593-3.040741-7.784297l10.703409 0c2.432593 0 4.013778-0.608148 4.743556-1.824445l0 40.624302c0 7.905927 3.040741 11.676446 9.000594 11.311557l35.759116 0c9.122224 0 12.771113-4.986816 10.703409-14.960447 0-0.364889-0.973037-3.770519-3.040741-10.095261-3.162371-9.973631-5.351704-17.27141-6.568001-22.136596-1.216296-3.52726-1.824445-6.203112-1.824445-7.784297 0.364889-1.216296 1.581185-3.040741 3.52726-5.351704 8.392446-12.771113 12.892743-24.690818 13.74415-35.759116C661.969355 95.798551 654.428317 86.554698 638.859722 86.068179L638.859722 86.068179zM670.48343 427.725858c-7.297779-7.297779-18.366077-7.419408-24.934078-0.729778-0.486519 0.486519-1.094667 0.851408-1.459556 1.459556L530.244447 542.057727l-0.243259-272.572039c0-8.878964-8.392446-16.055113-18.730966-16.055113-10.33852 0-18.244447 7.176149-18.244447 16.055113 0 0.729778-0.12163 1.216296 0 1.946074L492.904145 542.057727l-113.72372-113.602091c-0.364889-0.608148-0.973037-0.973037-1.459556-1.459556-6.689631-6.689631-17.636299-6.446371-24.934078 0.729778-7.297779 7.297779-7.784297 18.609336-1.094667 25.298967l144.009502 144.252762c2.067704 3.162371 5.108445 5.716593 9.122224 7.176149 2.067704 0.729778 4.135408 1.094667 6.324742 1.094667 0.243259 0 0.364889 0.12163 0.608148 0.12163 0.12163 0 0.243259-0.12163 0.486519-0.12163 2.189334 0.12163 4.500297-0.243259 6.568001-1.094667 3.892149-1.337926 6.93289-4.013778 9.000594-7.05452l144.009502-144.374391C678.267728 446.335194 677.781209 435.023637 670.48343 427.725858L670.48343 427.725858zM660.509799 649.699964 363.85509 649.699964c-9.122224 0-16.541632 7.419408-16.541632 16.420002 0 9.000594 7.419408 16.420002 16.541632 16.420002l296.65471 0c9.243853 0 16.541632-7.419408 16.541632-16.420002C677.051431 657.119373 669.632023 649.699964 660.509799 649.699964L660.509799 649.699964zM660.509799 649.699964M575.612305 120.732629l-27.4883 0c-1.216296 0-1.946074-0.851408-2.432593-2.432593l0-18.487706c0.364889-1.581185 1.216296-2.432593 2.432593-2.432593L575.612305 97.379736c1.581185 0.364889 2.432593 1.216296 2.432593 2.432593l0 18.487706C578.044898 119.881221 577.193491 120.732629 575.612305 120.732629L575.612305 120.732629zM575.612305 120.732629"  horiz-adv-x="1024" />

    
    <glyph glyph-name="icon" unicode="&#58895;" d="M500.738004 440.416917c12.229532 12.023848 12.229532 31.555693 0 43.580564-68.406996 67.511603-68.406996 176.899966 0 244.354264 68.419276 67.508533 179.334411 67.508533 247.753687 0 68.408019-67.453275 68.408019-176.842661 0-244.354264-12.227486-12.023848-12.227486-31.556717 0-43.580564 12.216229-12.084223 32.012088-12.084223 44.226271 0 92.848665 91.559299 92.848665 240.012376 0 331.572698-92.835362 91.585905-243.370867 91.585905-336.206228 0-92.849688-91.561345-92.849688-240.014422 0-331.572698C468.725916 428.332694 488.523821 428.332694 500.738004 440.416917L500.738004 440.416917zM217.951429 38.518524l-93.846388 0 0 64.696488c0 113.962541 83.47825 208.691019 193.440687 227.927129 33.228799 25.399483 71.397097 44.871977 112.851231 56.719816-22.920012 5.572926-46.910403 8.504698-71.586408 8.504698-164.202783 0-297.274544-131.209344-297.274544-293.152666l0-90.093924c0-0.937348 0.042979-1.818415 0.116657-2.756787-0.073678-0.881067-0.116657-1.819438-0.116657-2.696412 0-17.186428 13.989619-30.91101 31.247678-30.91101l125.183094 0c-0.016373 0.410346-0.016373 0.760317-0.016373 1.115404l0 60.647265L217.951429 38.518524 217.951429 38.518524zM242.483148 424.697911c12.214183 12.023848 12.214183 31.555693 0 43.638893-57.745169 56.951083-57.745169 149.273768 0 206.227921 27.273157 26.922163 62.554708 41.11542 98.274234 42.581818 10.734482 19.706831 24.531719 38.244023 41.410132 54.843072 1.173732 1.172709 2.376117 2.344395 3.563152 3.459798-65.896826 12.0832-136.518257-6.979972-187.488115-57.246819-82.173534-81.060177-82.173534-212.44553 0-293.504684C210.458781 412.672016 230.267942 412.672016 242.483148 424.697911L242.483148 424.697911zM618.353748 186.561255c-17.392112 0-31.278377-14.018272-31.278377-31.381731l0-85.281315c0-17.187451 14.004969-31.379685 31.278377-31.379685 17.404392 0 31.290657 14.017248 31.290657 31.379685l0 85.281315C649.645428 172.366975 635.642506 186.561255 618.353748 186.561255L618.353748 186.561255zM618.353748 285.332816c-17.274432 0-31.278377-13.840216-31.278377-30.849612 0-17.068747 14.004969-30.849612 31.278377-30.849612 17.288758 0 31.290657 13.781888 31.290657 30.849612C649.645428 271.4926 635.642506 285.332816 618.353748 285.332816L618.353748 285.332816zM624.616382 408.743544c-186.608072 0-337.847611-149.159158-337.847611-333.155752l0-91.499947c0-2.343371 0.248663-4.574179 0.747014-6.745634-0.497327-2.171456-0.747014-4.400217-0.747014-6.745634 0-17.128099 13.812587-30.850635 30.851659-30.850635l476.342896 0c17.024745 0 30.852682 13.84124 30.852682 30.850635 0 17.186428-13.814634 30.851659-30.852682 30.851659l-444.626543 0 0 74.138534c0 149.919475 123.216299 271.452435 275.2796 271.452435 152.030555 0 275.277554-121.530914 275.277554-271.452435l0-91.499947c0-17.068747 14.004969-30.849612 31.292704-30.849612 17.272385 0 31.276331 13.781888 31.276331 30.849612l0 91.499947C962.46297 259.584386 811.209104 408.743544 624.616382 408.743544L624.616382 408.743544z"  horiz-adv-x="1024" />

    
    <glyph glyph-name="liaotian" unicode="&#58913;" d="M176.617 20.177l22.039 62.86c23.948 68.306 24.32 92.183 24.32 92.416l2.607 35.258-29.417 15.081C69.329 290.63 24.32 425.844 24.32 521.937c0 181.97 207.197 330.008 461.87 330.008 256.233 0 456.96-144.966 456.96-330.008-0.837-203.38-188.253-350.929-445.695-350.976-0.094-0.023-4.515-0.162-11.497-0.162-16.36 0-41.216 0.768-66.793 4.538l-33.21 2.28-42.263-35.095c-15.593-16.989-66.747-59.229-110.709-86.877l-56.366-35.468z m92.881 154.927c-0.023-5.004-0.907-17.408-6.772-41.31 22.76 17.735 41.449 34.095 47.15 40.728l2.77 2.7 57.926 48.081 53.62-3.723c39.238-5.702 71.633-4.12 72.262-4.12 231.517 0.024 399.43 128.093 400.151 304.547 0 156.207-184.11 283.369-410.414 283.369-229.004 0-415.326-127.162-415.326-283.462 0-82.944 38.354-199.424 146.502-254.697l56.949-29.184-4.818-62.929zM954.275-116.713L903.4-79.407c-56.297 41.286-87.296 78.313-101.26 97.56l-27.066-4.19c-17.804-2.583-59.834-2.699-64.559-2.699-111.08 0-196.84 26.67-269.917 83.898l28.696 36.631C534.62 80.617 609 57.786 710.47 57.786c11.915 0.023 45.568 0.442 57.693 2.188l57.46 8.867 7.913-14.057c0.14-0.256 15.197-25.972 54.225-61.51-2.397 32.629-3.793 66.28-4.049 72.355l-0.605 15.058 52.945 26.344c82.549 42.217 119.46 95.93 119.46 174.01 0 58.462-12.591 101.027-76.94 145.548l26.507 38.284c68.888-47.663 96.978-100.934 96.978-183.808 0-96.466-46.08-164.934-145.036-215.576l-26.112-12.986c1.839-38.912 5.353-92.742 8.914-107.846l14.452-61.37z"  horiz-adv-x="1120" />

    
    <glyph glyph-name="youxiang" unicode="&#58668;" d="M1359.351-66.136l-408.15 474.709 408.625 423.363c2.912-8.736 4.933-17.888 4.933-27.515v-841.616c0-10.162-2.199-19.789-5.408-28.941zM817.726 412.436l-135.317-105.96-203.421 159.326-411.062 425.265c8.498 2.437 17.293 4.16 26.564 4.16h1175.957c9.271 0 18.007-1.723 26.505-4.16l-410.824-424.968-68.401-53.663zM5.586-66.136c-3.401 8.83-5.384 19.045-5.414 29.72l0.006 840.837c0 9.627 2.021 18.779 4.933 27.515l408.863-423.542-408.388-474.531zM682.409 198.080l200.331 156.889 413.142-479.107c-7.946-2.433-17.082-3.847-26.544-3.872l-1174.848 0.010c-8.855 0-17.293 1.605-25.435 3.803l413.38 478.928 199.974-156.652z"  horiz-adv-x="1365" />

    
    <glyph glyph-name="ding" unicode="&#59431;" d="M955.733333 896h-819.2c-75.093333 0-136.533333-61.44-136.533333-136.533333v-744.106667c0-75.093333 61.44-136.533333 136.533333-136.533333h819.2c75.093333 0 136.533333 61.44 136.533334 136.533333V759.466667c0 75.093333-61.44 136.533333-136.533334 136.533333z m-484.693333-204.8h423.253333v-54.613333h-204.8l-20.48-95.573334h197.973334v-341.333333h-54.613334V486.4h-273.066666v-293.546667h-54.613334v341.333334h129.706667l20.48 95.573333h-163.84v61.44z m-109.226667-546.133333c0-54.613333-27.306667-81.92-88.746666-81.92h-61.44c0 20.48-6.826667 40.96-13.653334 61.44 20.48-6.826667 40.96-6.826667 68.266667-6.826667 20.48 0 34.133333 13.653333 34.133333 34.133333V622.933333h-116.053333v54.613334h266.24v-54.613334h-95.573333v-477.866666z m498.346667-116.053334c-61.44 54.613333-129.706667 102.4-197.973333 150.186667-6.826667-6.826667-6.826667-20.48-13.653334-27.306667-40.96-54.613333-109.226667-95.573333-204.8-129.706666-6.826667 13.653333-20.48 34.133333-34.133333 54.613333 88.746667 27.306667 150.186667 61.44 191.146667 109.226667 34.133333 40.96 47.786667 109.226667 47.786666 191.146666v81.92h54.613334v-75.093333c0-61.44-6.826667-109.226667-20.48-150.186667 81.92-54.613333 150.186667-102.4 218.453333-150.186666l-40.96-54.613334z"  horiz-adv-x="1092" />

    
    <glyph glyph-name="liaotian1" unicode="&#58628;" d="M901.126 132.227c53.364 77.866 81.559 168.889 81.559 263.401 0 260.373-215.349 472.193-480.063 472.193-264.714 0-480.079-211.82-480.079-472.193 0-260.373 215.366-472.193 480.079-472.193 84.33 0 167.249 21.808 239.902 63.099 154.002-58.399 174.116-49.287 186.149-43.823l4.665 2.086 3.919 3.281c8.599 7.232 17.507 14.703 13.895 41.099-3.579 26.157-19.483 71.652-50.028 143.051v0zM825.632 134.144l8.617-19.804c15.2-34.886 31.001-74.379 41.485-103.61-32.067 9.722-76.302 25.148-115.903 40.477l-18 6.967-16.334-10.18c-66.619-41.394-143.687-63.28-222.874-63.28-230.356 0-417.762 184.333-417.762 410.913 0 226.58 187.406 410.913 417.762 410.913 230.356 0 417.762-184.333 417.762-410.913 0-88.691-28.268-173.12-81.735-244.188l-13.017-17.296zM378.275 395.628c0-28.61-23.581-51.804-52.668-51.804-29.103 0-52.684 23.194-52.684 51.804 0 28.61 23.581 51.82 52.684 51.82 29.087 0 52.668-23.21 52.668-51.82zM325.607 343.314c-29.33 0-53.202 23.465-53.202 52.314s23.872 52.33 53.202 52.33c29.33 0 53.185-23.481 53.185-52.33 0-28.849-23.856-52.314-53.185-52.314v0zM325.607 446.938c-28.763 0-52.165-23.019-52.165-51.31s23.403-51.294 52.165-51.294c28.747 0 52.149 23.003 52.149 51.294 0 28.291-23.403 51.31-52.149 51.31v0zM553.493 395.628c0-28.61-23.581-51.804-52.668-51.804s-52.684 23.194-52.684 51.804c0 28.61 23.597 51.82 52.684 51.82 29.087 0 52.668-23.21 52.668-51.82zM500.826 343.314c-29.33 0-53.185 23.465-53.185 52.314s23.856 52.33 53.185 52.33c29.33 0 53.185-23.481 53.185-52.33 0-28.849-23.856-52.314-53.185-52.314v0zM500.826 446.938c-28.763 0-52.165-23.019-52.165-51.31s23.403-51.294 52.165-51.294c28.763 0 52.165 23.003 52.165 51.294 0 28.291-23.403 51.31-52.165 51.31v0zM730.784 395.628c0-28.61-23.581-51.804-52.668-51.804s-52.668 23.194-52.668 51.804c0 28.61 23.581 51.82 52.668 51.82 29.087 0 52.668-23.21 52.668-51.82zM678.116 343.314c-29.33 0-53.185 23.465-53.185 52.314s23.856 52.33 53.185 52.33c29.33 0 53.185-23.481 53.185-52.33 0-28.849-23.856-52.314-53.185-52.314v0zM678.116 446.938c-28.763 0-52.165-23.019-52.165-51.31s23.403-51.294 52.165-51.294c28.763 0 52.149 23.003 52.149 51.294 0 28.291-23.386 51.31-52.149 51.31v0z"  horiz-adv-x="1024" />

    
    <glyph glyph-name="zuixin" unicode="&#58881;" d="M10.432-128.064L6.4 896.128h935.872v-1023.936l-468.544 245.696-463.296-245.952z m462.912 365.76l362.944-190.208V790.144H112.832l2.88-742.336 357.632 189.888zM199.104 591.296h46.528l47.296-90.944 18.624-42.176h1.28c-2.56 20.224-6.144 47.552-6.144 70.272v62.848h43.392v-190.08h-46.464l-47.04 91.712-18.624 41.728h-1.28c2.048-21.248 5.888-47.296 5.888-70.336v-63.104h-43.456v190.08zM394.176 591.296h120.64v-37.76h-74.88v-35.264h63.616v-38.336h-63.616v-40.384h77.696v-38.336H394.176v190.08zM536.64 591.296h46.72l12.032-86.592 7.68-60.288h1.024c3.648 20.16 7.424 40.64 11.264 60.288l19.392 86.592h38.4l19.968-86.592c3.84-19.392 7.104-39.872 10.944-60.288h1.344c2.304 20.416 4.8 40.64 7.104 60.288l12.288 86.592h43.392l-32.96-190.08h-57.472l-17.28 82.752a524.992 524.992 0 0 0-7.36 44.16h-1.28c-2.304-14.272-4.608-29.568-7.424-44.16L627.84 401.216h-56.448l-34.752 190.08z"  horiz-adv-x="1024" />

    
    <glyph glyph-name="weibo" unicode="&#58916;" d="M737.971591 423.219233c-12.96222 3.703345-22.221094 5.554506-14.81338 22.221094 14.813381 35.18536 14.813381 66.667376 0 88.890517-29.630854 42.593074-109.259426 40.74089-200.001104 1.851161 0 0-29.630854-12.96222-22.22314 9.258874 14.815427 44.446281 12.964266 81.482803-9.258875 103.705943-50.000787 49.999764-181.483354-1.854231-294.446125-114.815978C112.042819 449.145719 63.895239 360.255203 63.895239 282.476769c0-148.149155 190.740182-238.890832 375.927905-238.890832 244.445338 0 405.556713 142.593626 407.40992 257.409604 0.001023 68.518536-57.407478 105.557104-109.261473 122.223692zM441.675328 97.289046c-148.149155-14.813381-275.927353 51.853995-285.186228 150.001339-11.112082 96.297206 101.851713 187.038884 250.001891 201.854311 148.147108 14.813381 275.927353-51.853995 285.186228-150.001339 11.110035-96.297206-101.852736-187.038884-250.001891-201.854311z m14.815427 277.781584c-70.371744 18.517749-150.001339-16.666588-181.483354-79.630618-31.482015-64.816215 0-135.185912 70.369697-157.409053 74.075089-24.074302 161.113421 12.963243 190.742229 81.481779 29.630854 68.518536-7.407714 137.039119-79.628572 155.557892z m-53.705156-162.965605C387.970172 189.884954 356.490204 178.771849 334.267063 189.884954c-22.223141 11.110035-29.630854 37.036521-14.815427 61.110823 14.815427 22.223141 44.446281 31.482015 66.667375 22.223141 22.222117-11.113105 29.629831-37.039591 16.666588-61.113893z m48.148604 61.113893c-5.556553-9.260921-16.666588-12.964266-25.925463-9.260922-9.258874 3.704368-12.964266 12.963243-7.407713 22.223141 3.702322 9.258874 14.815427 12.963243 24.074301 9.258875 9.258874-3.703345 12.961196-12.963243 9.258875-22.221094z m325.92814 242.593153c5.555529 18.518772 1.851161 38.887682-11.110035 55.555294-14.815427 14.815427-35.18536 22.223141-53.705156 16.666588-16.666588-3.703345-31.479969 7.407714-35.18536 22.223141-3.702322 16.667611 7.407714 31.482015 22.22314 35.18536 38.887682 7.407714 81.481779-3.703345 109.259427-35.18536 27.777647-31.482015 37.035498-74.075089 24.074301-112.964818-5.556553-14.813381-22.223141-24.072255-37.038568-18.518772-14.813381 3.705392-24.074302 20.37198-18.517749 37.038567z m172.223457-55.556316c-5.556553-18.518772-25.925463-27.777647-42.593074-22.223141-18.519796 5.556553-27.77867 25.925463-22.223141 42.593074 18.517749 55.556317 7.407714 118.520347-35.18536 164.815743-42.593074 46.297442-103.70492 64.815191-161.113421 51.851948-18.517749-3.703345-37.036521 7.407714-40.738843 25.927509-3.704368 18.517749 7.405667 37.035498 25.925462 40.738843 79.628572 16.667611 166.667927-7.405667 225.927589-72.220858s74.076112-153.705708 50.000788-231.483118z"  horiz-adv-x="1024" />

    
    <glyph glyph-name="-liuyanban" unicode="&#58625;" d="M1125.376-91.136h-708.096c-65.024 0-118.272 52.736-118.272 118.272v708.096c0.512 65.024 54.272 123.392 119.296 123.392h475.136v-59.392h-475.136c-32.768 0-59.904-31.232-59.904-64v-708.096c0-32.768 26.624-58.88 58.88-58.88h708.096c32.768 0 65.024 27.136 65.024 59.904v474.624h59.392v-475.136c0-65.024-59.392-118.784-124.416-118.784M772.608 195.072c-8.704-8.704-19.456-12.8-30.72-15.36l-258.048-127.488c-29.184-13.312-52.224 12.8-41.472 41.472l127.488 258.56c2.048 11.264 6.656 22.016 14.848 30.72l458.752 459.264c23.040 23.040 60.416 23.040 83.456 0l104.96-104.96c23.040-23.040 23.040-60.416 0-83.456l-459.264-458.752zM498.688 129.536c-6.656-13.824 6.144-27.648 20.992-20.992l159.744 96.768-83.968 83.968-96.768-159.744zM647.68 320l83.456-83.456 333.824 333.824-104.96 103.424-332.8-333.312 20.48-20.48M1168.896 716.8l-62.464 62.464c-11.776 11.264-30.208 11.264-41.984 0l-60.928-61.44 102.912-105.984 62.464 62.464c11.776 12.288 11.776 30.72 0 42.496z"  horiz-adv-x="1548" />

    
    <glyph glyph-name="recomend" unicode="&#58882;" d="M0 384c0-282.77 229.23-512 512-512s512 229.23 512 512c0 282.77-229.23 512-512 512-282.77 0-512-229.23-512-512zM426.667 128h264.533s112.64 160.427 110.933 221.867c-1.707 61.44-29.013 98.987-93.867 102.4h-76.8s71.492 189.184-68.267 179.2c-71.68-5.12-68.267-85.333-68.267-85.333s-6.827-104.107-136.533-110.933c-129.707-6.827-133.12-22.187-136.533-59.733v-213.333s5.12-29.013 42.667-34.133h102.4v281.6s164.736 3.814 162.133 136.533c-1.707 87.040 68.267 51.2 68.267 51.2s22.187-1.707 17.067-59.733c-5.12-58.027-39.253-109.227 17.067-110.933 56.32-1.707 164.787 17.152 136.533-76.8-14.327-47.65-47.787-146.773-93.867-196.267h-247.467v-25.6zM341.333 153.6h-76.8s-17.067 1.707-17.067 25.6v204.8s1.707 17.067 17.067 17.067h76.8v-247.467z"  horiz-adv-x="1024" />

    
    <glyph glyph-name="xiangce" unicode="&#59164;" d="M0 697.6v-627.2c0-57.6 12.8-70.4 64-70.4h710.4c51.2 0 64 12.8 64 70.4V697.6c0 57.6-12.8 70.4-64 70.4H64c-51.2 0-64-12.8-64-70.4z m742.4-537.6h-640c70.4 115.2 192 300.8 224 300.8S460.8 307.2 505.6 256c0 0 57.6 89.6 89.6 89.6 38.4 0 140.8-185.6 147.2-185.6z m-192 396.8c0 44.8 32 76.8 76.8 76.8s76.8-25.6 76.8-76.8c0-44.8-32-76.8-76.8-76.8S550.4 512 550.4 556.8zM390.4 806.4L268.8 832c-38.4 6.4-57.6 6.4-64-25.6h185.6z m582.4-121.6L876.8 704v-640c0-32 0-64-25.6-83.2-19.2-19.2-51.2-25.6-76.8-25.6h-57.6l121.6-25.6c51.2-12.8 64 0 70.4 57.6l102.4 614.4c19.2 57.6 12.8 76.8-38.4 83.2z"  horiz-adv-x="1024" />

    
    <glyph glyph-name="youxiang1" unicode="&#58925;" d="M1450.666667 896H85.333333a85.333333 85.333333 0 0 1-85.333333-85.333333v-51.2l724.48-434.346667a85.333333 85.333333 0 0 1 85.333333 0L1536 759.466667V810.666667a85.333333 85.333333 0 0 1-85.333333 85.333333zM682.666667 180.906667L0 588.8V-42.666667a85.333333 85.333333 0 0 1 85.333333-85.333333h1365.333334a85.333333 85.333333 0 0 1 85.333333 85.333333V588.8l-682.666667-407.893333a170.666667 170.666667 0 0 0-170.666666 0z"  horiz-adv-x="1536" />

    
    <glyph glyph-name="youxiang2" unicode="&#58899;" d="M1144.888889 896H163.555556C73.216 896 0 819.712 0 725.560889v-681.642667c0-94.094222 73.216-170.382222 163.555556-170.382222h981.333333c90.339556 0 163.555556 76.231111 163.555555 170.382222V725.560889C1308.444444 819.768889 1235.228444 896 1144.888889 896z m40.903111-85.219556L654.222222 384.739556l-531.569778 426.097777h1063.139556zM81.749333 43.918222V725.560889l368.071111-298.211556-364.145777-408.064a87.210667 87.210667 0 0 0-3.925334 24.632889z m63.601778-82.944l369.038222 409.656889L654.222222 260.551111l133.802667 110.819556 375.068444-410.339556c-5.916444-1.422222-1011.825778-1.422222-1017.742222 0z m1077.475556 58.311111l-364.145778 408.064 368.014222 298.211556v-681.642667c0-8.647111-1.649778-16.782222-3.925333-24.632889z"  horiz-adv-x="1308" />

    
    <glyph glyph-name="biaoqian" unicode="&#59000;" d="M1026.765 504.01l-28.762 184.877c-12.326 69.84-73.946 131.466-143.792 143.792L669.334 861.441c-8.217 0-16.433 4.109-28.762 4.109-57.513 0-119.142-24.649-156.119-61.622L85.951 405.426c-57.513-57.513-57.513-152.007 0-209.525l275.255-275.255c28.762-28.762 65.73-45.19 106.817-45.19s78.058 16.433 106.817 45.19l398.502 398.502c45.19 53.406 65.73 115.034 53.406 184.877z m-242.388 49.299c-45.19 0-82.162 36.976-82.162 82.162s36.976 82.162 82.162 82.162 82.162-36.976 82.162-82.162c0-45.19-36.976-82.162-82.162-82.162z"  horiz-adv-x="1054" />

    
    <glyph glyph-name="rizhi" unicode="&#59104;" d="M800.768 793.6H223.232c-34.304 0-62.464-29.696-62.464-66.56v-686.08c0-36.864 28.16-66.56 62.464-66.56h577.024c34.304 0 62.464 29.696 62.464 66.56V727.04c0.512 36.864-27.648 66.56-61.952 66.56z m-59.392-644.096H282.624v95.744h458.24l0.512-95.744z m0 186.88H282.624V431.616h458.752v-95.232z m0 186.368H282.624V618.496h458.752v-95.744z"  horiz-adv-x="1024" />

    
    <glyph glyph-name="weibo1" unicode="&#59084;" d="M96 236.8C96 121.6 243.2 32 428.8 32c185.6 0 332.8 89.6 332.8 204.8 0 115.2-147.2 204.8-332.8 204.8C243.2 441.6 96 352 96 236.8M755.2 396.8c-12.8 6.4-25.6 6.4-19.2 25.6 12.8 38.4 19.2 70.4 0 96-32 44.8-121.6 44.8-217.6 0 0 0-32-12.8-25.6 12.8 25.6 51.2 19.2 96 0 115.2-51.2 51.2-198.4 0-320-128-89.6-89.6-147.2-192-147.2-275.2 0-160 204.8-262.4 409.6-262.4 268.8 0 441.6 153.6 441.6 275.2 0 83.2-64 128-121.6 140.8z m-320-352c-160-19.2-300.8 57.6-313.6 166.4C108.8 313.6 230.4 416 396.8 428.8c160 19.2 300.8-57.6 313.6-166.4C716.8 160 595.2 64 435.2 44.8zM934.4 697.6c-64 70.4-160 96-249.6 76.8-19.2-6.4-32-25.6-32-44.8 12.8-19.2 32-32 51.2-25.6 64 12.8 128-6.4 172.8-57.6 44.8-51.2 57.6-121.6 38.4-179.2-6.4-19.2 6.4-38.4 25.6-44.8 19.2-6.4 38.4 6.4 44.8 25.6 32 76.8 12.8 172.8-51.2 249.6M838.4 608c-32 32-76.8 44.8-121.6 38.4-19.2-6.4-25.6-19.2-25.6-38.4 6.4-19.2 19.2-25.6 38.4-25.6 19.2 6.4 44.8 0 57.6-19.2 12.8-19.2 19.2-38.4 12.8-57.6-6.4-19.2 6.4-32 19.2-38.4 19.2-6.4 32 6.4 38.4 19.2 19.2 38.4 12.8 83.2-19.2 121.6M448 352c-76.8 19.2-160-19.2-198.4-89.6-32-70.4 0-147.2 76.8-172.8 83.2-25.6 179.2 12.8 211.2 89.6S531.2 326.4 448 352z m-57.6-179.2c-12.8-25.6-51.2-38.4-76.8-25.6-25.6 12.8-32 38.4-19.2 64s44.8 32 70.4 25.6c32-12.8 38.4-38.4 25.6-64z m51.2 64C435.2 224 422.4 224 416 224c-12.8 6.4-12.8 12.8-6.4 25.6 6.4 6.4 19.2 12.8 25.6 12.8 6.4-6.4 12.8-12.8 6.4-25.6z"  horiz-adv-x="1024" />

    
    <glyph glyph-name="guanyu" unicode="&#58626;" d="M505.891 842.138c-253.004-3.382-455.411-211.266-452.029-464.334 3.382-252.894 211.266-455.367 464.269-451.964 253.004 3.382 455.411 211.266 452.029 464.334-3.338 252.938-211.266 455.346-464.269 451.964v0zM556.684 689.433c46.56 0 60.306-26.989 60.306-57.906 0-38.618-30.938-74.313-83.673-74.313-44.116 0-65.106 22.211-63.862 58.866 0.022 30.916 25.92 73.353 87.229 73.353zM437.251 97.61400000000003c-31.833 0-55.134 19.331-32.88 104.291l36.502 150.611c6.327 24.153 7.374 33.818 0 33.818-9.513 0-50.858-16.691-75.294-33.12l-15.884 26.051c77.454 64.647 166.494 102.589 204.654 102.589 31.811 0 37.091-37.658 21.207-95.564l-41.826-158.378c-7.374-27.993-4.189-37.658 3.186-37.658 9.513 0 40.844 11.564 71.607 35.76l17.978-24.153c-75.251-75.251-157.374-104.247-189.251-104.247v0z"  horiz-adv-x="1024" />

    
    <glyph glyph-name="biji" unicode="&#58627;" d="M335.872 334.336l-0.128-0.512c-0.128-0.384-0.256-0.896-0.64-1.536l-0.384-0.512c-0.384-0.512-0.64-0.768-0.768-1.152l-48.128-176.384c-2.432-9.088 0.128-18.688 6.784-25.6 4.864-4.736 11.648-7.424 18.688-7.424 2.304 0 4.608 0.256 6.784 0.896L495.36 169.856l0.256-0.128 0.512 0.128c0.896 0.256 1.28 0.384 1.792 1.024l468.48 468.608c13.056 13.184 20.352 31.232 20.352 51.072 0 22.528-9.6 44.928-26.24 61.44l-44.288 44.288c-16.64 16.64-39.168 26.24-61.696 26.24-19.584 0-37.76-7.168-51.072-20.352L335.872 334.336 335.872 334.336zM796.16 713.216l48.384 48.384c8.704 8.576 24.96 7.552 34.944-2.048l44.288-44.288c5.248-5.248 8.32-12.416 8.32-19.328-0.256-6.4-2.304-11.52-6.144-15.36l-49.28-49.152L796.16 713.216zM410.24 327.03999999999996l343.424 343.424 80.768-82.048L491.52 245.63199999999995 410.24 327.03999999999996zM348.544 184.70399999999995l27.648 102.016 74.112-74.24L348.544 184.70399999999995zM952.96 493.44c-15.744 0-28.544-12.928-28.544-28.8l0-436.864c0-24.96-20.224-45.184-45.184-45.184L140.032-17.408000000000015c-24.96 0-45.184 20.224-45.184 45.184L94.848 740.864c0 24.96 20.352 45.184 45.184 45.184l475.904 0c15.744 0 28.544 12.8 28.544 28.544s-12.8 28.544-28.544 28.544L134.912 843.136c-53.888 0-97.664-43.776-97.664-97.664l0-722.944c0-53.888 43.776-97.664 97.664-97.664l748.8 0c53.888 0 97.664 43.776 97.664 97.664L981.376 464.896C981.504 480.64 968.704 493.44 952.96 493.44z"  horiz-adv-x="1024" />

    
    <glyph glyph-name="zuixin1" unicode="&#58890;" d="M699.733333 291.84c0-17.066667-13.653333-30.72-30.72-30.72-5.12 0-8.533333 0-11.946666 1.706667-6.826667 1.706667-11.946667 3.413333-17.066667 8.533333L387.413333 523.946667v-232.106667c0-17.066667-13.653333-30.72-30.72-30.72s-30.72 13.653333-30.72 30.72V595.626667c-1.706667 10.24 0 22.186667 8.533334 30.72 13.653333 13.653333 35.84 13.653333 49.493333 0l256-254.293334V604.16c0 17.066667 13.653333 30.72 30.72 30.72s30.72-13.653333 30.72-30.72v-312.32zM762.88 759.466667H261.12c-68.266667 0-124.586667-56.32-124.586667-124.586667v-581.973333c0-39.253333 46.08-58.026667 73.386667-30.72l87.04 87.04c17.066667 17.066667 39.253333 25.6 63.146667 25.6h401.066666c68.266667 0 124.586667 56.32 124.586667 124.586666v375.466667c1.706667 68.266667-54.613333 124.586667-122.88 124.586667z"  horiz-adv-x="1024" />

    
    <glyph glyph-name="guanyu1" unicode="&#58887;" d="M619.328-0.64V803.744S508.32 896 350.944 896c-157.44 0-268.448-81.984-268.448-81.984V-0.64s111.008 79.424 268.448 79.424c157.376 0.032 268.384-79.424 268.384-79.424z m578.048 0V803.744S1086.368 896 928.992 896c-157.44 0-268.448-81.984-268.448-81.984V-0.64s111.008 79.424 268.448 79.424c157.376 0.032 268.384-79.424 268.384-79.424z m82.56 728.544h-41.248v-774.368H743.2v-40.736h-206.432v40.736H41.28V727.904H-0.032v-815.136h495.488V-128h291.616l-2.56 40.768h495.424V727.904z m0 0"  horiz-adv-x="1280" />

    
    <glyph glyph-name="dianzan1" unicode="&#58630;" d="M936.2508600796177 485.0996417000824h-270.6830966356982c104.88753969757875 387.37266443663384-72.26699796302074 407.1574008457891-72.26699796302074 407.1574008457891-75.0839623385957 0-59.51917367779203-59.37306230750286-65.19709294902898-69.27250041709446 0-189.4420325749172-201.21578105821823-337.88647151869765-201.21578105821823-337.88647151869765v-537.2279422032066c0-53.03057196495071 72.26699796302074-72.12874204274712 100.6157459791246-72.12874204274712h406.7017847448873c38.27646574575144 0 69.44532031743647 100.38008247865825 69.44532031743647 100.38008247865825 100.61731706912775 342.1362699771083 100.61731706912775 443.9334756385711 100.61731706912775 443.9334756385711 0.0015710900031092822 70.68805250989593-68.01719950461015 65.03998394871806-68.01719950461015 65.03998394871806v0 0zM936.2508600796177 485.0996417000824zM215.8055438938133 484.922108529731h-162.08464235077525c-33.473643606246355 0-33.99053221726932-32.878200495067944-33.99053221726932-32.878200495067944l33.473643606246355-541.8123828322794c0-34.48542556824874 34.543555898363785-34.48542556824874 34.543555898363785-34.48542556824874h140.2841974676309c29.22541623783886 0 28.966186387325827 22.81222684514677 28.966186387325827 22.81222684514677v545.2766362891354c0 41.61188982235244-41.19555097152849 41.08557467131084-41.19555097152849 41.08557467131084v0 0zM215.8055438938133 484.922108529731z"  horiz-adv-x="1024" />

    
    <glyph glyph-name="yonghu" unicode="&#58935;" d="M983.771429 165.449143c0 35.547429-112.347429 106.057143-240.274286 119.369143a28.525714 28.525714 0 0 0-25.965714 28.233143V390.436571c0 9.728 5.046857 18.724571 13.385142 23.990858 101.376 63.561143 112.274286 203.337143 112.274286 260.534857 0 105.910857-60.708571 164.278857-170.788571 164.278857a28.745143 28.745143 0 0 0-29.037715 28.379428c0 15.725714 13.019429 28.379429 29.037715 28.379429 141.165714 0 228.790857-84.699429 228.790857-221.037714 0-61.805714-11.922286-214.454857-122.221714-296.96l-3.437715-2.633143v-37.595429l7.168-1.243428c124.562286-22.381714 258.998857-94.134857 258.998857-171.081143a28.745143 28.745143 0 0 0-28.964571-28.452572 28.745143 28.745143 0 0 0-28.964571 28.525715zM429.348571 770.925714c-117.028571 0-178.834286-62.171429-178.834285-179.931428 0-108.470857 12.141714-227.108571 102.107428-283.428572a28.306286 28.306286 0 0 0 13.312-23.990857v-59.538286c0-14.628571-11.117714-26.770286-25.819428-28.233142-140.580571-14.628571-245.613714-68.754286-245.613715-107.227429 0-81.700571 111.177143-123.026286 330.605715-123.026286 223.817143 0 347.136 43.666286 347.136 123.026286 0 38.473143-104.96 92.525714-245.467429 107.227429a28.379429 28.379429 0 0 0-25.892571 28.233142v59.538286c0 9.728 4.973714 18.724571 13.312 23.917714 89.965714 56.539429 102.180571 175.104 102.180571 283.574858 0 117.76-61.878857 179.931429-178.907428 179.931428H429.348571zM36.571429 88.502857c0 82.870857 132.608 139.849143 264.045714 159.524572l7.460571 1.097142v19.529143l-3.510857 2.633143c-99.181714 74.898286-111.908571 210.212571-111.908571 319.780572 0 148.187429 88.502857 236.690286 236.690285 236.690285h8.045715c148.260571 0 236.836571-88.502857 236.836571-236.690285 0-109.568-12.726857-244.882286-111.908571-319.780572l-3.584-2.633143v-19.529143l7.533714-1.097142c131.364571-19.675429 263.972571-76.653714 263.972571-159.451429 0-117.686857-140.141714-179.931429-405.138285-179.931429C163.620571-91.428571 36.571429-32.548571 36.571429 88.502857z"  horiz-adv-x="1097" />

    
    <glyph glyph-name="dingbu1" unicode="&#58915;" d="M1052.444444-128H85.333333a85.333333 85.333333 0 0 0-85.333333 85.333333V810.666667a85.333333 85.333333 0 0 0 85.333333 85.333333h967.111111a85.333333 85.333333 0 0 0 85.333334-85.333333v-853.333334a85.333333 85.333333 0 0 0-85.333334-85.333333z m-212.195555 443.733333l-227.271111 213.048889-0.853334 0.853334-15.36 13.937777a48.355556 48.355556 0 0 1-62.293333 0l-15.644444-13.937777c-0.284444-0.284444-0.284444-0.568889-0.568889-0.853334l-221.582222-209.92a36.067556 36.067556 0 0 1 0-55.466666l15.36-9.102223a47.872 47.872 0 0 1 62.008888 5.12l191.431112 182.613334 197.12-186.026667a48.355556 48.355556 0 0 1 62.293333-4.835556l15.36 8.817778a36.750222 36.750222 0 0 1 0 55.751111z"  horiz-adv-x="1137" />

    
    <glyph glyph-name="guanyu2" unicode="&#58638;" d="M222.608696 896h578.782608c122.434783 0 222.608696-100.173913 222.608696-222.608696v-578.782608c0-122.434783-100.173913-222.608696-222.608696-222.608696h-578.782608c-122.434783 0-222.608696 100.173913-222.608696 222.608696v578.782608c0 122.434783 100.173913 222.608696 222.608696 222.608696zM520.904348 54.53913c-178.086957 0-320.556522 142.469565-320.556522 320.556522s142.469565 320.556522 320.556522 320.556522 320.556522-142.469565 320.556522-320.556522-142.469565-320.556522-320.556522-320.556522zM489.73913 562.086957v-267.130435h66.782609v267.130435h-66.782609z m22.26087-311.652174c2.226087 0-6.678261-2.226087-22.26087 0 2.226087-15.582609 0-24.486957 0-22.26087 0-20.034783 2.226087-28.93913 0-44.521739 15.582609 4.452174 24.486957 0 22.26087 0 20.034783 0 28.93913 4.452174 44.521739 0-2.226087 15.582609 0 24.486957 0 44.521739 0-2.226087-2.226087 6.678261 0 22.26087-15.582609-2.226087-24.486957 0-44.521739 0z"  horiz-adv-x="1024" />

    
    <glyph glyph-name="youxiang3" unicode="&#58891;" d="M512 896a512 512 0 1 1 512-512A512 512 0 0 1 512 896zM288.892121 600.643232h470.626263a58.543838 58.543838 0 0 0 58.854141-56.888889l-294.063838-161.409292-294.012121 160.995555a58.285253 58.285253 0 0 0 58.595555 57.302626z m-58.543838-118.949495l-0.258586-285.42707a58.440404 58.440404 0 0 1 58.854141-57.768081h470.626263a58.440404 58.440404 0 0 1 58.854141 57.768081V481.745455l-287.133737-153.858586a14.791111 14.791111 0 0 0-14.067071 0z"  horiz-adv-x="1024" />

    
    <glyph glyph-name="youxiang4" unicode="&#58976;" d="M512-128c281.6 0 512 230.4 512 512s-230.4 512-512 512-512-230.4-512-512 230.4-512 512-512zM512 358.4l256 243.2H268.8h-6.4L512 358.4z m294.4 204.8v6.4L633.6 403.2l172.8-204.8V563.2z m-588.8 0v-352l179.2 192-172.8 166.4c-6.4 0-6.4 0-6.4-6.4z m300.8-256c-6.4-6.4-12.8-6.4-12.8 0l-70.4 64L256 166.4h524.8l-192 204.8-70.4-64z"  horiz-adv-x="1024" />

    
    <glyph glyph-name="biji1" unicode="&#58883;" d="M969.891959-123.449521H53.823636c-15.642272 0-28.440494 12.798222-28.440495 28.440494V424.456603c0 15.642272 12.798222 28.440494 28.440495 28.440495s28.440494-12.798222 28.440494-28.440495v-491.025135h859.187335V621.549229c0 15.642272 12.798222 28.440494 28.440494 28.440495s28.440494-12.798222 28.440495-28.440495v-716.558256c0-15.642272-12.65602-28.440494-28.440495-28.440494zM53.823636 399.855576c-15.642272 0-28.440494 12.798222-28.440495 28.440494V862.440217c0 15.642272 12.798222 28.440494 28.440495 28.440494h662.805721c15.642272 0 28.440494-12.798222 28.440494-28.440494s-12.798222-28.440494-28.440494-28.440495H82.26413v-405.56145c0-15.784474-12.65602-28.582697-28.440494-28.582696zM871.203444 859.596167l77.358145-58.303013L964.630468 822.054715s12.08721 15.642272 0 34.412998c0 0-11.091793 18.059714-30.289127 28.582697 0 0-25.88085 13.509235-43.087348-2.84405l-20.050549-22.610193zM923.960561 770.57742l-131.537286-168.794334s-11.802805-20.903763-32.137759-30.289127l-58.303014-26.876267s-15.642272-7.678933-19.055131 13.367032l10.380781 61.858076s-0.995417 11.376198 14.504652 31.142341l139.358422 178.3219 76.789335-58.729621zM792.281072 365.01597H231.576725c-15.642272 0-28.156089 12.798222-28.156089 28.156089 0 15.642272 12.798222 28.156089 28.156089 28.15609h560.704347c15.642272 0 28.156089-12.798222 28.15609-28.15609 0-15.500069-12.513818-28.156089-28.15609-28.156089zM473.747535 562.250799H231.576725c-15.642272 0-28.156089 12.798222-28.156089 28.156089 0 15.642272 12.798222 28.156089 28.156089 28.156089h242.17081c15.642272 0 28.156089-12.798222 28.156089-28.156089 0.142202-15.642272-12.513818-28.156089-28.156089-28.156089zM792.281072 165.221497H231.576725c-15.642272 0-28.156089 12.798222-28.156089 28.156089 0 15.642272 12.798222 28.156089 28.156089 28.15609h560.704347c15.642272 0 28.156089-12.798222 28.15609-28.15609s-12.513818-28.156089-28.15609-28.156089z"  horiz-adv-x="1024" />

    
    <glyph glyph-name="guanyu3" unicode="&#58971;" d="M429.515539 62.594331c-36.975857 0-62.574527 22.754374-36.975857 116.616164l39.820154 167.813506c5.688593 25.59867 8.53289 36.975857 0 36.975857-11.377187 0-56.885934-19.910077-85.328901-36.975857l-17.06578 28.442967c85.328901 71.107417 184.879285 113.771868 227.543736 113.771868 34.13156 0 42.66445-42.66445 22.754373-108.083275l-45.508747-176.346395c-8.53289-31.287264-5.688593-42.66445 2.844297-42.664451 11.377187 0 45.508747 14.221483 79.640307 39.820154l19.910077-25.59867c-82.484604-79.640308-173.502099-113.771868-207.633659-113.771868M563.197484 725.315462c51.197341 0 68.263121-31.287264 68.263121-65.418824 0-42.66445-34.13156-82.484604-93.861791-82.484605-48.353044 0-73.951714 25.59867-71.107418 65.418824-2.844297 34.13156 25.59867 82.484604 96.706088 82.484605m-56.885934 170.657802C221.88188 893.128967-2.817559 659.896638 0.026738 378.311264 2.871034 96.725891 236.103364-130.817845 517.688737-127.973548c281.585373 2.844297 509.129109 236.076626 506.284812 517.661999C1021.129253 674.118121 787.896923 898.81756 506.31155 895.973264"  horiz-adv-x="1024" />

    
    <glyph glyph-name="liuyanban" unicode="&#58969;" d="M853.333333-128H170.666667c-93.866667 0-170.666667 76.8-170.666667 170.666667V725.333333C0 819.2 76.8 896 170.666667 896h682.666666c93.866667 0 170.666667-76.8 170.666667-170.666667v-682.666666c0-93.866667-76.8-170.666667-170.666667-170.666667zM742.4 102.4H315.733333c-46.933333 0-85.333333 38.4-85.333333 85.333333V614.4c0 28.16 23.04 51.2 51.2 51.2h375.466667c75.093333 0 136.533333-61.44 136.533333-136.533333v-375.466667c0-28.16-23.04-51.2-51.2-51.2zM516.266667 256l-3.413334-0.853333-2.56-3.413334zM456.533333 214.186667v20.48l-18.773333-6.826667zM739.84 541.866667l-69.973333 54.613333-10.24 7.68-7.68-10.24-218.453334-287.573333-2.56-3.413334v-4.266666l-2.56-83.626667v-20.48l17.92 6.826667 77.653334 29.013333 3.413333 0.853333 2.56 3.413334 213.333333 285.866666 7.68 11.093334-11.093333 10.24zM512.853333 255.146667l-56.32-20.48 2.56 58.026666L622.933333 510.293333l50.346667-37.546666-160.426667-217.6z m175.786667 240.64L640 533.333333l23.893333 31.573334 49.493334-37.546667-24.746667-31.573333zM629.76 162.986667c7.68 0 13.653333 6.826667 13.653333 14.506666 0 7.68-6.826667 14.506667-13.653333 14.506667h-79.36c-7.68 0-13.653333-6.826667-13.653333-14.506667 0-7.68 6.826667-14.506667 13.653333-14.506666h79.36zM366.08 192.853333h-79.36c-7.68 0-13.653333-6.826667-13.653333-14.506666 0-7.68 5.973333-14.506667 13.653333-14.506667h77.653333c7.68 0 13.653333 6.826667 13.653334 14.506667 1.706667 7.68-5.12 14.506667-11.946667 14.506666zM366.08 389.973333h-79.36c-7.68 0-13.653333-6.826667-13.653333-14.506666 0-7.68 6.826667-14.506667 13.653333-14.506667h77.653333c7.68 0 13.653333 6.826667 13.653334 14.506667 1.706667 7.68-5.12 14.506667-11.946667 14.506666zM366.08 289.28h-79.36c-7.68 0-13.653333-6.826667-13.653333-14.506667 0-7.68 6.826667-14.506667 13.653333-14.506666h77.653333c7.68 0 13.653333 6.826667 13.653334 14.506666 1.706667 7.68-5.12 14.506667-11.946667 14.506667z"  horiz-adv-x="1024" />

    
    <glyph glyph-name="star-opp" unicode="&#58629;" d="M772.465625-79.62881249999998c-10.418625 0-22.5736875 3.472875-32.9923125 8.68218749l-225.73687499 112.86843752-227.47331251-112.86843752c-22.5736875-12.1550625-52.093125-10.418625-72.93037501 5.20931251-20.83725 15.6279375-32.99231251 43.4109375-27.78299998 69.4575l46.8838125 243.10125L53.5805 413.51943749C34.4796875 432.62025001 27.5339375 462.1396875 34.4796875 486.4498125c8.6821875 26.0465625 29.51943749 45.14737499 57.30243751 48.62025l248.31056249 45.147375 111.13200001 225.736875c12.1550625 24.310125 36.4651875 39.9380625 62.51175 39.9380625s52.093125-15.6279375 62.51175-39.9380625l111.13199999-225.736875 248.31056251-43.4109375c26.0465625-3.472875 48.62025001-22.5736875 55.56599999-48.62025 8.6821875-26.0465625 1.73643751-53.8295625-17.364375-72.930375L795.03931251 246.8214375l45.14737499-243.10125c5.2093125-27.783-6.94575-53.8295625-27.783-69.4575-10.418625-8.6821875-24.310125-13.89149999-39.9380625-13.8915z"  horiz-adv-x="1024" />

    
    <glyph glyph-name="ding1" unicode="&#58956;" d="M1251.555556 896H0v-967.111111h1240.177778L1024 412.444444l227.555556 483.555556zM469.333333 713.955556h344.177778v-48.355556h-150.755555c0-25.6-2.844444-51.2-8.533334-71.111111h136.533334V270.222222h-48.355556v278.755556h-207.644444V270.222222h-48.355556V594.488889h116.622222c2.844444 19.911111 5.688889 45.511111 8.533334 71.111111h-145.066667V713.955556zM364.088889 184.888889c0-39.822222-19.911111-59.733333-56.888889-59.733333H227.555556l-11.377778 45.511111c34.133333-2.844444 56.888889-2.844444 71.111111-2.844445 17.066667 0 25.6 8.533333 25.6 28.444445V665.6H207.644444V713.955556h238.933334v-48.355556h-82.488889V184.888889z m298.666667 201.955555c-2.844444-73.955556-19.911111-130.844444-54.044445-173.511111-34.133333-39.822222-88.177778-71.111111-164.977778-93.866666l-25.6 42.666666c73.955556 19.911111 122.311111 48.355556 153.6 85.333334 25.6 36.977778 42.666667 82.488889 42.666667 142.222222v122.311111h48.355556v-125.155556z m122.311111-270.222222c-31.288889 36.977778-71.111111 76.8-122.311111 119.466667l34.133333 31.288889c51.2-39.822222 91.022222-76.8 125.155555-113.777778l-36.977777-36.977778z"  horiz-adv-x="1251" />

    
    <glyph glyph-name="ding2" unicode="&#58986;" d="M1251.555556 896H0v-967.111111h1240.177778L1024 412.444444l227.555556 483.555556zM469.333333 713.955556h344.177778v-48.355556h-150.755555c0-25.6-2.844444-51.2-8.533334-71.111111h136.533334V270.222222h-48.355556v278.755556h-207.644444V270.222222h-48.355556V594.488889h116.622222c2.844444 19.911111 5.688889 45.511111 8.533334 71.111111h-145.066667V713.955556zM364.088889 184.888889c0-39.822222-19.911111-59.733333-56.888889-59.733333H227.555556l-11.377778 45.511111c34.133333-2.844444 56.888889-2.844444 71.111111-2.844445 17.066667 0 25.6 8.533333 25.6 28.444445V665.6H207.644444V713.955556h238.933334v-48.355556h-82.488889V184.888889z m298.666667 201.955555c-2.844444-73.955556-19.911111-130.844444-54.044445-173.511111-34.133333-39.822222-88.177778-71.111111-164.977778-93.866666l-25.6 42.666666c73.955556 19.911111 122.311111 48.355556 153.6 85.333334 25.6 36.977778 42.666667 82.488889 42.666667 142.222222v122.311111h48.355556v-125.155556z m122.311111-270.222222c-31.288889 36.977778-71.111111 76.8-122.311111 119.466667l34.133333 31.288889c51.2-39.822222 91.022222-76.8 125.155555-113.777778l-36.977777-36.977778z"  horiz-adv-x="1251" />

    
    <glyph glyph-name="guanyu4" unicode="&#58894;" d="M505.154694 895.953496a511.966082 511.966082 0 1 1 518.749633-505.011876A511.966082 511.966082 0 0 1 505.154694 895.953496z m56.742908-170.65536c52.007221 0 67.408867-30.184667 67.408867-64.678382 0-43.175806-34.579042-83.023833-93.476474-83.023833-49.298067 0-72.741848 24.809023-71.376604 65.744978C464.474723 677.855945 493.400806 725.298136 561.897602 725.298136z m-133.345833-661.289523c-35.581643 0-61.585253 21.609235-36.754898 116.557611l40.807963 168.287518c7.039534 26.984879 8.212789 37.77883 0 37.77883a271.811326 271.811326 0 0 1-84.261084-36.989549l-17.748158 29.096739c86.5436 72.229881 186.057007 114.659071 228.699515 114.65907 35.560311 0 41.447921-42.087878 23.699764-106.787592l-46.738237-177.054936c-8.234121-31.272595-4.693022-42.087878 3.56243-42.087879a183.987811 183.987811 0 0 1 80.016033 39.954687l20.094668-26.984879C555.839336 96.411799 464.048084 64.008613 428.551769 64.008613z"  horiz-adv-x="1024" />

    
    <glyph glyph-name="QQ" unicode="&#58963;" d="M509.1-63.4c-106.4 2-204.1 35.5-286.8 106.6-104.1 89.5-157.7 204-158.1 341.3C63.8 507.1 108 613 194.5 699.7c86.7 87.1 192.9 131.1 316 131.6 110.9 0.4 209.4-36.1 292.9-109C905.3 633.3 958 519.5 958 384.7c0.3-246.3-196.5-446.5-448.9-448.1zM507.1 671.2c76 8.2 187-49.3 191.1-187 0 0 30.8-24.7 20.5-76 0 0 71.9-84.2 43.1-166.4-4.1-20.5-20.5-24.7-47.3 32.9-8.2-20.5-30.8-65.7-39-71.9 0 0 30.8 0 34.9-32.9 12.3-16.4 8.2-32.9 4.1-32.9-8.2-20.5-94.5-71.9-187-8.2h-28.8s-67.8-57.5-158.2-20.5c-47.3 20.5-30.8 53.4-28.8 57.5-4.1 12.3 8.2 28.8 34.9 37 0 0-28.8 28.8-39 67.8 0 0-24.7-45.2-43.1-41.1-20.5 4.1-16.4 121.2 47.3 174.6 0 0-16.4 28.8 0 45.2 0 0-4.1 20.5 16.4 32.9 4.3-2 4.3 180.8 178.9 189z"  horiz-adv-x="1024" />

    
    <glyph glyph-name="lanmudaohangxuanzhong" unicode="&#58889;" d="M463.238095 432.761905h-219.428571a195.047619 195.047619 0 0 0-195.047619 195.047619v24.380952a195.047619 195.047619 0 0 0 195.047619 195.047619h24.380952a195.047619 195.047619 0 0 0 195.047619-195.047619zM243.809524 749.714286a97.52381 97.52381 0 0 1-97.52381-97.52381v-24.380952a97.52381 97.52381 0 0 1 97.52381-97.52381h121.904762v121.904762a97.52381 97.52381 0 0 1-97.52381 97.52381zM268.190476-79.238095h-24.380952a195.047619 195.047619 0 0 0-195.047619 195.047619v24.380952a195.047619 195.047619 0 0 0 195.047619 195.047619h219.428571v-219.428571a195.047619 195.047619 0 0 0-195.047619-195.047619z m-24.380952 316.952381a97.52381 97.52381 0 0 1-97.52381-97.52381v-24.380952a97.52381 97.52381 0 0 1 97.52381-97.52381h24.380952a97.52381 97.52381 0 0 1 97.52381 97.52381v121.904762zM780.190476 432.761905h-219.428571v219.428571a195.047619 195.047619 0 0 0 195.047619 195.047619h24.380952a195.047619 195.047619 0 0 0 195.047619-195.047619v-24.380952a195.047619 195.047619 0 0 0-195.047619-195.047619z m-121.904762 97.523809h121.904762a97.52381 97.52381 0 0 1 97.52381 97.52381v24.380952a97.52381 97.52381 0 0 1-97.52381 97.52381h-24.380952a97.52381 97.52381 0 0 1-97.52381-97.52381zM780.190476-79.238095h-24.380952a195.047619 195.047619 0 0 0-195.047619 195.047619v219.428571h219.428571a195.047619 195.047619 0 0 0 195.047619-195.047619v-24.380952a195.047619 195.047619 0 0 0-195.047619-195.047619z m-121.904762 316.952381v-121.904762a97.52381 97.52381 0 0 1 97.52381-97.52381h24.380952a97.52381 97.52381 0 0 1 97.52381 97.52381v24.380952a97.52381 97.52381 0 0 1-97.52381 97.52381z"  horiz-adv-x="1024" />

    
    <glyph glyph-name="pinglun" unicode="&#58905;" d="M1053.568623 895.994478H39.765195A39.209088 39.209088 0 0 1 0.003866 856.233149v-760.380183a42.743428 42.743428 0 0 1 39.761329-39.761329h188.86631v-144.134815a41.859843 41.859843 0 0 1 19.880664-34.791163 18.279166 18.279166 0 0 1 14.910499-4.970166 37.938934 37.938934 0 0 1 24.85083 9.940332l213.717141 173.955812h551.633208a42.743428 42.743428 0 0 1 39.761329 39.761329V856.233149a39.209088 39.209088 0 0 1-39.816553 39.761329zM1053.568623 895.994478H39.765195A39.209088 39.209088 0 0 1 0.003866 856.233149v-760.380183a42.743428 42.743428 0 0 1 39.761329-39.761329h188.86631v-144.134815a41.859843 41.859843 0 0 1 19.880664-34.791163 18.279166 18.279166 0 0 1 14.910499-4.970166 37.938934 37.938934 0 0 1 24.85083 9.940332l213.717141 173.955812h551.633208a42.743428 42.743428 0 0 1 39.761329 39.761329V856.233149a39.209088 39.209088 0 0 1-39.816553 39.761329z m-39.761328-760.380184H491.995082a37.938934 37.938934 0 0 1-24.85083-9.940332l-164.01548-129.224317v99.403321a42.743428 42.743428 0 0 1-39.761328 39.761328H79.526523V816.471821h939.250938v-680.857527zM243.542003 627.60551h606.305036V548.082853H243.542003z m0-218.687306h342.886235v-79.522657H243.542003z"  horiz-adv-x="1093" />

    
    <glyph glyph-name="call-yellow" unicode="&#58631;" d="M884.875894 472.856747L646.970506 472.856747c92.185562 340.464205-63.516616 357.853247-63.516616 357.853247-65.993017 0-52.312436-52.182476-57.3031-60.881602 0-166.502152-176.849824-296.971645-176.849824-296.971645l0-472.171899c0-46.607504 63.516616-63.393819 88.433098-63.393819l357.452111 0c33.641191 0 61.036122 88.224344 61.036122 88.224344 88.434122 300.70569 88.434122 390.177444 88.434122 390.177444C944.657442 477.820805 884.875894 472.856747 884.875894 472.856747L884.875894 472.856747 884.875894 472.856747zM884.875894 472.856747M251.671415 472.700181L109.214912 472.700181c-29.420053 0-29.873378-28.89612-29.873378-28.89612l29.420053-476.202703c0-30.309306 30.361495-30.309306 30.361495-30.309306L262.420223-62.70794799999999c25.686009 0 25.458835 20.049638 25.458835 20.049638L287.879058 436.588729C287.879058 473.162716 251.671415 472.700181 251.671415 472.700181L251.671415 472.700181 251.671415 472.700181zM251.671415 472.700181"  horiz-adv-x="1024" />

    
    <glyph glyph-name="soushuo" unicode="&#59108;" d="M222.6944 673.2032A323.1488 323.1488 0 0 1 133.6832 384c19.2512 87.3728 64.512 172.7488 135.0144 243.3024C339.2512 697.8815999999999 424.6272 743.1168 512 762.3679999999999c-101.632 19.1488-210.688-10.5216-289.3056-89.1648zM989.44 73.88160000000005l-121.7024 121.7024a118.016 118.016 0 0 1-92.8 34.1248c114.4576 165.5552 97.92 394.3936-49.4848 541.824-165.9392 165.9904-435.0464 165.9904-601.0368 0-165.9392-165.9904-165.9392-435.1232 0-601.1136 147.4048-147.4304 376.064-163.84 541.7216-49.3824-2.56-33.28 8.8576-67.5328 34.1248-92.8l121.7024-121.728c46.08-45.9776 121.3696-45.9776 167.3472 0 46.208 45.9776 46.208 121.2928 0.128 167.3728zM676.096 219.904c-138.6752-138.6752-363.392-138.6752-502.016 0-138.6752 138.6752-138.6752 363.4432 0 502.1184 138.624 138.6752 363.3408 138.6752 502.016 0 138.6496-138.5728 138.6496-363.4432 0-502.1184z"  horiz-adv-x="1024" />

    
    <glyph glyph-name="biji2" unicode="&#58926;" d="M806.4 896H243.2c-76.8 0-134.4-57.6-134.4-134.4v-19.2C44.8 729.6 0 672 0 601.6c0-44.8 19.2-83.2 51.2-108.8C19.2 467.2 0 428.8 0 384s19.2-83.2 51.2-108.8C19.2 249.6 0 211.2 0 166.4 0 96 44.8 44.8 108.8 25.6v-19.2c0-70.4 57.6-134.4 134.4-134.4h563.2c70.4 0 134.4 57.6 134.4 134.4V761.6C934.4 838.4 876.8 896 806.4 896zM108.8 313.6C83.2 326.4 64 352 64 384c0 32 19.2 57.6 44.8 70.4v-140.8z m0 358.4v-140.8C83.2 544 64 576 64 601.6s19.2 57.6 44.8 70.4zM64 166.4c0 32 19.2 57.6 44.8 70.4V96C83.2 108.8 64 134.4 64 166.4z m806.4-160c0-38.4-32-64-64-64H243.2c-38.4 0-64 32-64 64V761.6c0 38.4 32 64 64 64h563.2c38.4 0 64-32 64-64v-755.2zM307.2 665.6H768v-64H307.2v64zM307.2 403.2H768v-64H307.2v64zM307.2 166.4H768v-64H307.2v64z"  horiz-adv-x="1024" />

    
    <glyph glyph-name="tuijian" unicode="&#59033;" d="M105.537604 896v-1024l425.002786 182.551532 387.922006-182.551532V896H105.537604zM258.766797 261.291142q14.204791 3.251699 27.325682 6.67454v51.342619h-25.842451v14.832312h25.842451v40.218384h15.859164v-40.218384h24.530363v-14.832312h-24.530363v-47.235209q12.892702 3.479889 24.530363 6.959777a151.175487 151.175487 0 0 1 1.483231-16.486685l-26.013594-7.416156v-64.121226q0-21.620947-16.714874-22.818941-10.610808-0.627521-21.620947-0.399332-0.85571 8.500056-2.567131 17.570585 10.610808-0.85571 17.114206-0.85571a7.187967 7.187967 0 0 1 8.043677 8.271866v57.846017l-25.214931-7.530251z m54.423175 35.14117a353.12312 353.12312 0 0 1 47.86273 78.554206l15.859164-5.305404q-8.043677-17.114206-17.114206-32.402897h105.993983v-14.375933h-52.483565v-32.802228h49.517103v-14.490028h-49.517103v-32.802229h49.517103v-14.375933h-49.517103v-33.429749h55.906407v-13.976602H353.180167v-15.859164h-16.087354V300.9961q-5.704735-8.385961-12.094039-16.429638a115.806128 115.806128 0 0 1-11.865849 11.86585z m39.933148-6.332256h44.040557v32.802228h-43.98351z m0-47.235209h44.040557v32.745181h-43.98351z m0-47.86273h44.040557v33.429749h-43.98351z m38.735153 171.142061l13.349081 8.271867q10.382618-13.349081 19.053816-26.241783l-14.604123-9.127577q-7.815487 13.063844-17.741727 27.040446zM520.899387 314.231086h57.903064q2.567131 4.73493 4.96312 9.755098h16.714875q-2.453036-4.96312-4.849025-9.755098h123.849805v-14.832312H587.815933q-7.929582-14.204791-16.486685-26.698161v-105.195321h-16.087354v83.745516a242.793538 242.793538 0 0 0-30.691476-31.204903q-5.704735 8.443008-9.92624 14.204791a245.303621 245.303621 0 0 1 55.906407 65.205126h-49.517103z m-0.399331 40.617716h55.906406v18.825627h16.087354v-18.825627h58.872869v19.053816h16.087354v-19.053816h55.050696v-14.832312H667.454039v-15.459833h-16.087354v15.459833H592.436769v-13.063844h-16.087354v13.120892h-55.906407z m66.460167-119.171922h63.721894v10.382619l30.919666 19.909526H598.369694v14.375933h109.473871v-14.375933l-41.074094-26.013593v-4.278552h55.678217v-14.832312h-55.678217v-28.181393q0-24.986741-22.818942-24.98674h-36.85259q-1.0839 8.043677-2.738273 17.114206 19.453148-1.711421 35.540501-1.711421 11.010139 0 11.010139 11.86585v25.614261H586.960223zM652.108301 678.136156H564.540613c33.943175 125.504178-23.389415 131.72234-23.389415 131.72234-24.302173 0-19.282006-19.224958-21.107521-22.41961 0-61.154763-65.091031-109.30273-65.091031-109.30273v-173.823287c0-17.114206 23.389415-23.332368 32.574039-23.332368h131.551198c12.379276 0 22.476657 32.459944 22.476657 32.459945 32.574039 110.671866 32.574039 143.645237 32.574039 143.645236a19.852479 19.852479 0 0 1-22.020278 21.050474z m0 0M371.549415 678.079109m23.788747 0l18.882674 0q23.788747 0 23.788746-23.788747l0-149.521114q0-23.788747-23.788746-23.788747l-18.882674 0q-23.788747 0-23.788747 23.788747l0 149.521114q0 23.788747 23.788747 23.788747Z"  horiz-adv-x="1024" />

    
    <glyph glyph-name="lanmudaohang-dianji" unicode="&#58886;" d="M256.975238 847.238095A206.506667 206.506667 0 0 0 463.238095 640V432.761905h-206.262857a207.238095 207.238095 0 0 0 0 414.47619zM365.714286 530.285714v109.714286a109.714286 109.714286 0 1 1-109.714286-109.714286zM256 335.238095H463.238095v-207.238095a207.238095 207.238095 0 1 0-207.238095 207.238095zM365.714286 237.714286h-109.714286a109.714286 109.714286 0 1 1 109.714286-109.714286zM768 847.238095a207.238095 207.238095 0 0 0 0-414.47619H560.761905v207.238095A207.238095 207.238095 0 0 0 768 847.238095zM658.285714 530.285714h109.714286a109.714286 109.714286 0 1 1-109.714286 109.714286zM560.761905 335.238095h207.238095a207.238095 207.238095 0 1 0-207.238095-207.238095zM658.285714 237.714286v-109.714286a109.714286 109.714286 0 1 1 109.714286 109.714286z"  horiz-adv-x="1024" />

    
    <glyph glyph-name="youxiang5" unicode="&#59067;" d="M1025.518537-114.333169h-1012.357885v658.032625L480.869995 870.691053a66.81562 66.81562 0 0 0 76.939199 0l467.709343-326.991597zM889.356401 484.982699l-370.016806-135.655957-369.510628 137.680673V571.033119h739.527434v-86.05042z"  horiz-adv-x="1038" />

    
    <glyph glyph-name="liaotian2" unicode="&#58632;" d="M249 481.4c-26.9 0-48.7-21.8-48.7-48.7 0-26.9 21.8-48.7 48.7-48.7s48.7 21.8 48.7 48.7c0 26.9-21.8 48.7-48.7 48.7z m194.8 0c-26.9 0-48.7-21.8-48.7-48.7 0-26.9 21.8-48.7 48.7-48.7 26.9 0 48.7 21.8 48.7 48.7 0 26.9-21.8 48.7-48.7 48.7zM290.2 113.29999999999995c10.8 1.8 20.5 2.1 28.1-0.3 42.1-13.7 87.7-21.1 135.3-21.1 215.2 0 389.6 152.6 389.6 340.9 0 188.3-174.4 340.9-389.6 340.9S64 621 64 432.7c0-78.5 30.4-150.9 81.4-208.5 20.1-22.8-10-114.7 16-132.3 24.4-16.6 84.2 13.4 126.9 21.1m165.3 37.3c-43.7 0-85.4 7.2-123.6 20.3-30.4 10.4-104.4-37.6-129.6-20.3-18.9 13 9.8 89.9-5.4 106.1-45.4 48.3-72.5 109.6-72.5 176.4 0 156 148.3 282.4 331.1 282.4s331.1-126.5 331.1-282.4c0-156.1-148.3-282.5-331.1-282.5zM960 337.70000000000005c0 45.6-10.4 89-29 128.7l-44-44c9.9-26.7 15.2-55.1 15.2-84.7 0-66.2-26.8-127.1-71.6-175.1-15-16.1 13.3-92.4-5.4-105.3-24.8-17.1-98 30.6-128 20.2-37.7-13-78.9-20.2-122.1-20.2-16.9 0-33.5 1.4-49.7 3.6l-49.8-49.8c31.8-7.5 65-11.8 99.5-11.8 47 0 92 7.4 133.6 21 37.1 12.1 124.3-41.9 155-21 25.7 17.5-4.1 108.8 15.8 131.4 50.5 57.2 80.5 129.1 80.5 207zM638.6 481.4c-26.9 0-48.7-21.8-48.7-48.7 0-26.9 21.8-48.7 48.7-48.7s48.7 21.8 48.7 48.7c0 26.9-21.8 48.7-48.7 48.7z"  horiz-adv-x="1024" />

    
    <glyph glyph-name="youxiang6" unicode="&#58652;" d="M831.05 749.85h-638.1c-66.375 0-119.7-53.55-119.7-119.7v-492.3c0-65.92 53.55-119.7 119.7-119.7h638.325c66.15 0 119.7 53.545 119.7 119.7v492.525c-0.225 66.15-53.775 119.475-119.925 119.475zM636.425 430.575l270.238 212.85c0.67-4.275 1.125-8.55 1.125-13.05v-492.3c0-10.125-1.8-19.795-5.4-28.795l-265.963 321.295zM196.105 706.875h632.033c24.75 0 47.25-11.25 61.875-29.25l-382.963-294.3-372.595 294.525c14.661 17.779 36.691 29.026 61.348 29.026 0.106 0 0.213 0 0.319-0.001zM121.405 109.27499999999998c-3.375 9-5.4 18.67-5.4 28.795v492.305c0 4.5 0.45 9 1.125 13.275l270.67-213.295-266.395-321.08zM192.95 61.56700000000001c-19.125 0-36.675 3.613-50.4 14.633l276.3 330.533 75.375-67.733c7.2-5.85 17.55-5.85 24.525-0.225l85.95 67.275 276.3-330.075c-13.725-11.025-31.275-15.088-50.175-15.088l-637.875 0.68zM195.979 707.55h632.038c24.75 0 47.25-11.25 61.875-29.25l-382.958-294.3-372.605 294.525c14.625 17.775 36.675 29.025 61.65 29.025z"  horiz-adv-x="1024" />

    
    <glyph glyph-name="yemian1-copy" unicode="&#58636;" d="M562.805 815.3025a72.135 72.135 0 0 1-96.93 0L73.925 443.13a36.1575 36.1575 0 0 1 48.42-53.7075l6.2325 5.9175V6.899999999999977a72.315 72.315 0 0 1 72.315-72.405h210.4425v217.71a50.9175 50.9175 0 0 0 50.94 50.985h99.0225a50.9175 50.9175 0 0 0 50.94-50.985v-217.71h215.4375a72.315 72.315 0 0 1 72.3375 72.405V390.5925c16.065-14.535 38.8575-13.4325 52.2225 1.4625a36.1575 36.1575 0 0 1-2.61 51.075L562.805 815.28z"  horiz-adv-x="1024" />

    
    <glyph glyph-name="dingbu2" unicode="&#59427;" d="M298.666667 554.666667h426.666666V597.333333H298.666667v-42.666666z m234.666666-81.066667l140.8-140.8 29.866667 29.866667L512 554.666667l-192-192 29.866667-29.866667 140.8 140.8v-341.333333h42.666666v341.333333zM512-42.666667C277.333333-42.666667 85.333333 149.333333 85.333333 384S277.333333 810.666667 512 810.666667s426.666667-192 426.666667-426.666667-192-426.666667-426.666667-426.666667z"  horiz-adv-x="1024" />

    
    <glyph glyph-name="tengxun" unicode="&#58910;" d="M252.8 264.8c-24-29.6-56-43.2-92.8-33.6-40.8 10.4-69.6 37.6-76 80-21.6 151.2 23.2 280.8 136 384C328 792.8 455.2 823.2 596.8 795.2c-67.2-10.4-132-28-189.6-68-76-52.8-116.8-128-128.8-217.6-8-53.6-7.2-108-8.8-162.4-0.8-28 3.2-57.6-16.8-82.4zM534.4 731.2c20 42.4 75.2 64.8 121.6 48 203.2-74.4 319.2-304 259.2-512-16.8-58.4-44-111.2-82.4-157.6-4-4.8-8-8.8-8.8-9.6 8.8 39.2 22.4 80.8 28.8 124 15.2 108.8-23.2 198.4-102.4 272.8-51.2 48.8-112 84-174.4 116-48.8 24.8-59.2 80.8-41.6 118.4zM216.8 143.2c93.6-60 192.8-63.2 292.8-23.2 56 22.4 108.8 52 160.8 83.2 49.6 30.4 100.8 12 125.6-24.8 27.2-39.2 16.8-98.4-22.4-130.4-228-184-576.8-82.4-669.6 195.2-0.8 2.4-0.8 4.8-1.6 7.2 34.4-40.8 70.4-78.4 114.4-107.2zM626.4 440.8c2.4-5.6 5.6-12 9.6-16.8 22.4-23.2 32-52 30.4-83.2 0-6.4-4.8-12.8-8-19.2-6.4 3.2-12.8 5.6-17.6 9.6-4 3.2-7.2 8-11.2 12.8-9.6-16-17.6-30.4-25.6-45.6 4-2.4 9.6-4.8 12.8-8.8 5.6-5.6 13.6-13.6 12.8-19.2-0.8-6.4-9.6-14.4-16.8-16.8-28-9.6-56-8-80.8 8.8-14.4 9.6-26.4 10.4-41.6 0.8-23.2-16.8-50.4-18.4-76.8-11.2-8 2.4-20.8 11.2-20.8 16.8 0 8 10.4 16 16.8 23.2 2.4 2.4 6.4 3.2 9.6 5.6-9.6 14.4-19.2 28-29.6 44-3.2-4-6.4-8-10.4-10.4-5.6-4-12-6.4-18.4-9.6-2.4 6.4-7.2 12.8-8 19.2-1.6 28.8 8 54.4 24.8 78.4 11.2 15.2 18.4 33.6 25.6 51.2 6.4 15.2 9.6 32.8 16.8 48 18.4 36 50.4 52.8 90.4 52 40.8 0 72.8-18.4 89.6-56 12.8-23.2 17.6-48.8 26.4-73.6z"  horiz-adv-x="1024" />

    
    <glyph glyph-name="index" unicode="&#58944;" d="M562.80499999 815.3025a72.135 72.135 0 0 1-96.92999998 0L73.925 443.13a36.15749997 36.15749997 0 0 1 48.42-53.70749999l6.2325 5.91749998V6.900000009999985a72.315 72.315 0 0 1 72.315-72.40500001h210.4425v217.70999999a50.91750001 50.91750001 0 0 0 50.94 50.98500001h99.0225a50.91750001 50.91750001 0 0 0 50.94-50.98500001v-217.70999999h215.4375a72.315 72.315 0 0 1 72.3375 72.40500001V390.5925c16.065-14.535 38.8575-13.4325 52.22249999 1.46249999a36.15749997 36.15749997 0 0 1-2.60999999 51.07500001L562.80499999 815.28z"  horiz-adv-x="1024" />

    
    <glyph glyph-name="biaoji" unicode="&#58912;" d="M513.2 831.8c-180.5 0-324.3-149.2-324.3-332.9 0-80.3 51.7-229.7 84.8-286.9 38.8-66.8 88.6-115.4 114.3-143.2 25-27.1 82.6-101.7 125.3-101.1 40.5 0.6 108.6 80.9 124.5 101.1 17.8 22.6 78.2 78.2 107.7 139.4 29.5 61.1 92.1 206.6 92.1 286.9-0.1 183.7-143.8 336.7-324.4 336.7z m1-486.2c-88.7 0-161.8 73.1-161.8 161.8 0 90.5 71.4 161.8 161.8 161.8 88.7 0 161.8-73.1 161.8-161.8s-73-161.8-161.8-161.8z"  horiz-adv-x="1024" />

    
    <glyph glyph-name="jian" unicode="&#58884;" d="M854 834H170a108 108 0 0 1-108-108v-684a108 108 0 0 1 108-108h684a108 108 0 0 1 108 108V726a108 108 0 0 1-108 108zM358.37 75.606h-50.76V339.774c-30.726-37.17-63.018-70.038-96.858-98.514a1328.112 1328.112 0 0 1-31.392 44.748c68.13 54.99 126.918 123.57 176.346 205.722H199.394v46.764h182.682c5.346 10.026 10.566 20.25 15.696 30.726h52.776c-5.13-10.476-10.242-20.7-15.372-30.726h390.762v-46.764H410.462a1085.976 1085.976 0 0 0-52.11-84.168v-331.956z m476.928 169.002h-175.68v-88.848c0-52.56-24.282-78.822-72.81-78.822a13485.6 13485.6 0 0 0-116.226 0.666 1065.726 1065.726 0 0 1-8.676 54.108c40.95-3.564 78.372-5.346 112.212-5.346 23.148 0 34.74 12.456 34.74 37.404v80.82h-201.06v46.764h201.06v32.724l97.524 62.784H443.87v45.414H789.2v-45.414l-129.582-82.152v-13.356h175.68v-46.746z m0 375.39h-173.664v-48.762h-50.76v48.762H425.168v-41.418h-50.76v41.418H198.062V666.744h176.346V726.198h50.76v-59.454h185.688v60.12h50.76v-60.12h173.664v-46.746z"  horiz-adv-x="1024" />

    
    <glyph glyph-name="qq-icon" unicode="&#58906;" d="M928.802712 155.995119c-6.196068 75.86278-45.941153 160.490305-62.533424 202.821423l-42.435254 109.290305c-1.353763 45.541966 12.114441 149.989966-58.489492 280.992543C694.584407 880.067254 552.821153 891.921356 526.526915 893.257763 500.406237 894.368542 336.410034 895.704949 255.809085 753.264814 175.346983 610.668475 196.903051 467.968 196.903051 467.968L152.037966 357.723119s-21.000678-50.26278-39.068203-111.303594C94.624542 185.239864 76.834712 89.00122 94.624542 69.597288c18.327864-19.664271 83.829153 89.487186 89.886373 99.328 0 0 4.703458-52.015729 16.974102-79.247186 10.101153-21.694915 33.965559-76.140475 82.215051-118.714577-23.187525-7.549831-78.969492-27.769492-87.057356-48.388339-10.24-26.554576 7.949017-29.505085 39.484746-31.258033 31.258034-1.752949 181.924881-5.796881 254.021423 4.165423 0.676881 0.277695 1.614102 0.277695 2.290983 0.416543 7.150644-0.277695 13.884746-0.416542 19.820475-0.416543 4.026576 0 8.608542 0 13.884746 0.277695 0.659525 0 0.93722-0.277695 1.596746-0.277695 72.113898-10.24 222.780746-6.196068 254.038779-4.165423 31.258034 1.735593 49.724746 4.859661 39.484746 31.258033-8.226712 21.174237-65.62278 41.51539-88.133424 48.648678 7.289492 6.334915 14.145085 13.069017 20.48 20.358509 81.260475 89.469831 74.526373 145.668339 77.893424 178.158644 0 0 68.469153-98.789966 83.134915-102.01817 15.516203-3.245559 20.098169 12.392136 14.162441 88.272272zM325.336949-57.604339a225.36678 225.36678 0 0 0-41.098847 29.244746c-23.187525-7.688678-78.969492-27.769492-87.057356-48.388339-10.24-26.554576 7.949017-29.505085 39.484746-31.258034 31.258034-1.752949 181.924881-5.796881 254.021423 4.165424 0.676881 0.277695 1.614102 0.277695 2.290983 0.416542a353.818034 353.818034 0 0 0-167.658305 45.819661z m408.055322 29.244746c-71.419661-63.488-159.414237-74.127186-206.848-75.602441 0.659525 0 0.93722-0.277695 1.614102-0.277695 72.096542-10.24 222.76339-6.196068 254.021424-4.165424 31.27539 1.735593 49.724746 4.842305 39.484745 31.240678-8.348203 21.434576-65.761627 41.654237-88.272271 48.804882zM866.147797 359.076881l-42.452611 109.429153s-291.232542-92.177356-626.653288 0l-44.88244-110.227526s61.596203-21.833763 160.507661-37.488813v-148.219661s78.570305-10.778034 137.736678-3.367051v137.181288c120.068339-6.595254 265.754034 2.950508 415.744 52.69261zM765.344542 749.220881C694.862102 879.945763 553.081492 891.799864 526.80461 893.153627c-26.138034 1.336407-190.151593 2.690169-270.752542-139.888813-80.566237-142.717831-58.871322-285.296814-58.871322-285.296814 336.774508-93.930305 626.653288 0 626.653288 0-1.49261 45.819661 12.253288 150.528-58.489492 281.252881z m-337.989423-141.624406c-30.598508 0-55.122441 35.423458-55.122441 79.22983 0 43.667525 24.801627 79.247186 55.122441 79.247187 30.581153 0 55.122441-35.458169 55.12244-79.247187 0-43.806373-24.541288-79.247186-55.12244-79.247186z m164.534237 0c-30.581153 0-55.105085 35.423458-55.105085 79.22983 0 43.667525 24.784271 79.247186 55.105085 79.247187 30.598508 0 55.122441-35.458169 55.122441-79.247187 0-43.806373-24.784271-79.247186-55.122441-79.247186zM419.805288 680.352542c0-17.373288 10.778034-31.674576 23.847051-31.674576 13.207864 0 23.864407 14.023593 23.864407 31.674576s-10.79539 31.674576-23.864407 31.674577c-13.069017-0.138847-23.847051-14.283932-23.847051-31.674577z m172.084068 19.820475c15.91539 0 37.749153-8.226712 33.028339-21.174237-3.783593-10.24-22.510644 3.384407-29.244746 4.460474-8.504407 1.076068-21.018034 2.013288-31.27539-10.517695-6.872949-8.226712-17.650983-7.289492-13.884745 4.043933 4.338983 12.669831 20.358508 23.187525 41.376542 23.187525zM318.724339 541.001763c0-13.329356 99.449492-63.192949 190.568136-62.516068 91.101288 0.659525 192.581424 49.985085 192.581423 64.407864 0 14.283932-73.051119 39.745085-194.47322 39.745085-121.283254 0.156203-188.658983-21.955254-188.658983-41.636881zM928.802712 155.995119c-6.196068 75.86278-45.941153 160.490305-62.533424 202.821423a1104.670373 1104.670373 0 0 0-116.701288-31.275389c3.367051-16.974102 7.688678-54.029017 6.074576-124.789153-2.707525-105.524068-37.072271-191.505356-121.699796-241.230102-84.627525-49.724746-233.263729-38.807864-298.088136 42.45261-61.197017 76.279322-81.000136 133.293559-66.299661 324.104678-73.589153 14.561627-117.395525 29.921627-117.395525 29.921628s-21.018034-50.26278-39.08556-111.32095C94.76339 185.500203 76.973559 89.296271 94.76339 69.874983c18.327864-19.681627 83.968 89.487186 89.903729 99.328 0 0 4.703458-52.033085 16.974101-79.247186 12.253288-27.231458 46.618034-105.524068 123.43539-147.976678 76.678508-42.313763 141.919458-46.340339 187.600271-46.340339 45.680814 0 160.091119 6.716746 241.230102 96.203932 81.121627 89.487186 74.526373 145.685695 77.893424 178.158644 0 0 68.451797-98.77261 83.134915-102.01817 15.238508-3.505898 19.820475 12.149153 13.884746 87.994577z"  horiz-adv-x="1024" />

    
    <glyph glyph-name="bookmark_plus_fill" unicode="&#59371;" d="M614.4 537.6H563.2v-51.2a51.2 51.2 0 0 0-102.4 0V537.6H409.6a51.2 51.2 0 0 0 0 102.4h51.2V691.2a51.2 51.2 0 0 0 102.4 0v-51.2h51.2a51.2 51.2 0 0 0 0-102.4m51.2 358.4H358.4a102.4 102.4 0 0 1-102.4-102.4v-870.2976c0-45.6192 55.1424-68.4544 87.3984-36.1984l132.4032 132.4032a51.2 51.2 0 0 0 72.3968 0l132.4032-132.4032c32.256-32.256 87.3984-9.4208 87.3984 36.1984V793.6a102.4 102.4 0 0 1-102.4 102.4"  horiz-adv-x="1024" />

    
    <glyph glyph-name="notebook__eas" unicode="&#58900;" d="M685.61139-6.508474999999976H26.033898V895.947932h659.577492A52.015729 52.015729 0 0 0 737.627119 843.932203v-798.424949A52.015729 52.015729 0 0 0 685.61139-6.508474999999976zM546.711864 895.947932h86.779661V-6.508474999999976h-86.779661zM26.033898 600.7755930000001h520.677966v-312.406779h-520.677966zM633.491525 600.7755930000001h104.135594v-312.406779h-104.135594zM199.59322-93.28813600000001l-52.067796 34.711865-52.067797-34.711865v86.779661h104.135593zM859.118644 774.508475h69.423729v-69.423729h-69.423729zM928.542373 896h-34.972204a34.538305 34.538305 0 0 1-19.265084-5.883661 34.434169 34.434169 0 0 1-15.186441-28.567864V774.508475h69.423729V896zM963.514576 896zM928.542373 705.084746h69.423729v-659.525424h-69.423729zM928.542373 774.508475h69.423729v-69.423729h-69.423729zM997.966102 861.548475zM997.966102 774.508475V861.548475A34.434169 34.434169 0 0 1 963.514576 896H928.542373v-121.491525h69.423729zM997.966102 45.55932199999995h-138.847458l69.423729-121.491525zM911.186441-110.64406799999995a17.355932 17.355932 0 1 1 34.711864 0v69.423729h-34.711864v-69.423729zM859.118644 705.084746h69.423729v-659.525424h-69.423729z"  horiz-adv-x="1024" />

    
    <glyph glyph-name="weixin1" unicode="&#58965;" d="M939.723093 341.390222c-0.028444 27.904 19.797333 48.184889 47.274667 48.355556 26.368 0.142222 48.412444-20.764444 47.786667-45.368889-0.711111-29.212444-21.674667-50.915556-48.753778-50.375111-24.519111 0.455111-46.307556 22.755556-46.307556 47.388444zM148.512427 110.222222a7.139556 7.139556 0 0 1-1.649778 4.380445 4.380444 4.380444 0 0 1-1.137778 4.437333c5.518222 24.689778 9.528889 49.863111 16.924445 73.984 7.936 25.827556 0.938667 42.666667-21.105778 58.112-50.631111 35.441778-87.722667 83.342222-111.928889 139.662222-46.648889 108.373333-39.224889 212.679111 29.781333 310.784C168.764871 857.088 324.185316 905.016889 504.835982 890.311111c118.584889-9.614222 220.728889-57.315556 302.108445-145.351111 50.232889-54.328889 81.379556-117.959111 87.239111-192.711111-22.016-0.170667-44.231111 1.422222-66.048-0.739556-96.142222-9.699556-183.864889-38.883556-252.245334-111.872-66.844444-71.310222-101.831111-152.263111-78.506666-251.534222 1.649778-7.111111 2.730667-14.506667 5.319111-21.276444 4.181333-10.951111-3.413333-14.108444-10.524445-18.005334l-9.813333-0.568889h-68.636444l-9.671111 0.910223c-33.166222 6.4-66.218667 13.425778-99.498667 18.915555-13.624889 2.275556-27.392-0.199111-39.082667-8.96a4.494222 4.494222 0 0 1-3.982222-1.479111c-6.826667 0.199111-11.832889-3.100444-15.900444-8.248889a5.091556 5.091556 0 0 1-3.982223-1.735111l-5.376-3.413333-4.551111-1.962667-4.494222-3.157333-0.256-0.227556a20.764444 20.764444 0 0 1-15.729778-9.187555 5.319111 5.319111 0 0 1-4.039111-1.877334l-4.835555-3.413333-5.12-2.332444-3.555556-2.844445-1.024-0.597333-5.688889-3.84-4.380444-2.048-4.295111-3.185778-0.398223-0.284444-19.569777-5.546667a5.888 5.888 0 0 1-4.152889 1.308444l-5.632 5.176889zM492.178204 148.821333c7.111111 3.896889 14.705778 7.054222 10.524445 18.005334-2.588444 6.769778-3.669333 14.136889-5.347556 21.276444-23.267556 99.271111 11.690667 180.224 78.506667 251.534222 68.408889 72.988444 156.131556 102.172444 252.302222 111.872 21.788444 2.190222 44.003556 0.568889 66.019556 0.739556 125.127111-9.159111 231.480889-55.182222 302.961778-162.360889 75.633778-113.351111 59.676444-244.48-32.796445-342.755556-15.616-16.554667-31.004444-33.536-50.460444-46.279111-9.216-6.030222-13.767111-14.023111-9.045334-27.164444 6.883556-19.000889 10.496-39.224889 15.160889-58.993778 1.905778-8.021333 3.470222-16.896-4.096-22.755555-7.907556-6.058667-17.123556-4.636444-25.486222-0.170667-13.653333 7.310222-27.960889 13.880889-40.391111 22.954667-30.663111 22.414222-62.293333 24.177778-99.470222 16.896-128.142222-25.144889-245.873778 0.739556-349.923556 81.777777-40.533333 31.573333-72.647111 69.831111-92.074667 117.788445-3.413333 8.391111-11.320889 11.377778-16.355555 17.635555z m447.544889 192.568889c0-24.661333 21.788444-46.933333 46.307556-47.388444 27.079111-0.512 48.042667 21.162667 48.782222 50.346666 0.597333 24.632889-21.447111 45.539556-47.815111 45.397334-27.477333-0.170667-47.303111-20.451556-47.274667-48.355556z m-152.576 0.369778c0.142222 27.591111-19.911111 47.985778-47.160889 47.957333-26.225778-0.028444-46.193778-19.541333-46.734222-45.738666-0.597333-28.16 18.972444-49.436444 45.596445-49.578667 27.079111-0.142222 48.156444 20.508444 48.298666 47.36zM787.147093 341.76c-0.142222-26.851556-21.219556-47.502222-48.298666-47.36-26.624 0.142222-46.193778 21.447111-45.596445 49.578667 0.568889 26.168889 20.48 45.710222 46.734222 45.738666 27.249778 0 47.303111-20.366222 47.160889-47.957333zM515.275093 596.935111c0 27.904 19.797333 48.184889 47.274667 48.355556 26.368 0.142222 48.412444-20.764444 47.786667-45.368889-0.711111-29.212444-21.674667-50.887111-48.753778-50.375111-24.519111 0.455111-46.307556 22.755556-46.307556 47.388444z m-152.576 0.369778c-0.142222-26.823111-21.191111-47.502222-48.298666-47.331556-26.624 0.142222-46.193778 21.418667-45.596445 49.578667 0.568889 26.168889 20.508444 45.681778 46.734222 45.710222 27.249778 0.028444 47.303111-20.337778 47.160889-47.957333z"  horiz-adv-x="1252" />

    
    <glyph glyph-name="guanyu5" unicode="&#58950;" d="M811.252094-93.593081a210.893085 210.893085 0 0 0-76.23312 19.104651 509.70466 509.70466 0 0 1-403.423448 0 210.893085 210.893085 0 0 0-76.233121-19.104651 42.104424 42.104424 0 0 0-34.175066 12.056333 142.728434 142.728434 0 0 0-16.878866 99.78934 512.857854 512.857854 0 0 1-124.829417 384.318798C44.46932 443.748404 29.02794 478.248064 36.029887 499.949463s39.693158 40.249604 92.091836 52.908754a511.51311 511.51311 0 0 1 326.355658 237.509758c28.239641 46.045918 56.20106 71.410587 78.829869 71.410588s50.451116-25.36467 78.829869-71.410588a511.51311 511.51311 0 0 1 326.355658-237.509758c52.398678-12.65915 85.136259-31.439207 92.091836-52.908754s-8.439433-56.015578-43.449169-97.378073a512.857854 512.857854 0 0 1-124.643935-384.226056 142.728434 142.728434 0 0 0-16.878866-99.789341 42.104424 42.104424 0 0 0-34.175067-12.056333zM533.30725 829.272834c1.112892-0.231853 19.614726-5.332609 50.451116-55.644613a544.899878 544.899878 0 0 1 347.778835-253.04388c59.215143-14.328488 68.396504-30.83639 68.442874-30.929131s2.364896-18.965539-37.096409-65.521533a546.337364 546.337364 0 0 1-132.758774-409.312502c4.637051-59.493366-7.604764-74.192818-8.253951-74.888376a25.132817 25.132817 0 0 0-9.737807-1.344745 175.697867 175.697867 0 0 0-63.666712 16.647014 544.111579 544.111579 0 0 1-429.808269 0 175.697867 175.697867 0 0 0-63.666712-16.647014 25.132817 25.132817 0 0 0-9.737807 1.344745c-0.602817 0.695558-12.844632 15.348639-8.253951 74.888376a546.290993 546.290993 0 0 1-132.758774 409.312502c-39.600417 46.370511-37.096409 65.33605-37.096409 65.428792s9.274102 16.647014 68.442875 30.975501a544.899878 544.899878 0 0 1 347.778834 253.04388c30.83639 50.312005 49.291853 55.412761 50.451117 55.644614m0 66.680795q-53.650682 0-107.254993-87.454784a478.358194 478.358194 0 0 0-306.509079-223.08853q-199.393198-48.132591-66.309831-204.401213a479.702939 479.702939 0 0 0 117.08554-360.94806q-11.453516-148.014672 84.440701-148.014672a241.683105 241.683105 0 0 1 89.124123 21.701399 477.616266 477.616266 0 0 0 378.847077 0 241.683105 241.683105 0 0 1 89.124123-21.701399q95.894217 0 84.440701 148.014672a479.749309 479.749309 0 0 0 117.085541 360.94806q132.897885 156.268623-66.309832 204.401213a478.311824 478.311824 0 0 0-306.509079 223.08853Q587.421637 895.907259 533.817326 895.907259zM480.027532 568.345967a237.324277 237.324277 0 0 0-152.048906-110.408187q-98.86193-23.834443-32.876692-101.134085a236.999683 236.999683 0 0 0 58.10225-178.619209q-7.882987-101.273197 86.11004-62.507449a237.463388 237.463388 0 0 0 187.939682 0q93.993026-38.765747 86.110039 62.507449a236.953313 236.953313 0 0 0 58.05588 178.619209q65.938867 77.299642-32.876692 101.134085a237.277906 237.277906 0 0 0-152.048907 110.408187q-53.279717 86.341892-106.466694 0z"  horiz-adv-x="1066" />

    
    <glyph glyph-name="daohang" unicode="&#58936;" d="M512 896C229.741714 896 0 666.331429 0 384s229.741714-512 512-512c282.404571 0 512 229.741714 512 512 0 282.331429-229.595429 512-512 512z m274.578286-259.949714L672.841143 284.16c-7.387429-23.04-31.963429-48.420571-54.857143-56.612571l-352.256-125.293715c-22.747429-8.118857-35.547429 4.169143-28.598857 27.282286l111.981714 368.420571c7.021714 23.113143 31.597714 47.908571 54.637714 55.149715l354.596572 111.469714c22.966857 7.314286 35.620571-5.558857 28.233143-28.525714zM512 384m-73.142857 0a73.142857 73.142857 0 1 1 146.285714 0 73.142857 73.142857 0 1 1-146.285714 0Z"  horiz-adv-x="1024" />

    
    <glyph glyph-name="qq" unicode="&#58901;" d="M512 890.181818C232.727273 890.181818 5.818182 663.272727 5.818182 384S232.727273-122.18181800000002 512-122.18181800000002 1018.181818 104.72727299999997 1018.181818 384 791.272727 890.181818 512 890.181818z m228.072727-658.618182c-1.163636-1.163636-2.327273-1.163636-3.490909-2.327272-13.963636 3.490909-30.254545 16.290909-37.236363 26.763636-3.490909 3.490909-4.654545 9.309091-10.472728 11.636364 0-20.945455-12.8-40.727273-22.109091-54.690909-3.490909-4.654545-13.963636-12.8-13.963636-17.454546 3.490909-2.327273 8.145455-3.490909 12.8-4.654545 10.472727-4.654545 25.6-12.8 31.418182-22.109091 2.327273-3.490909 5.818182-6.981818 6.981818-10.472728 16.290909-38.4-36.072727-47.709091-62.836364-53.527272-26.763636-5.818182-76.8 10.472727-90.763636 18.618182-8.145455 5.818182-16.290909 18.618182-29.090909 18.618181-3.490909-2.327273-13.963636-1.163636-19.781818-1.163636-16.290909-32.581818-101.236364-47.709091-146.618182-30.254545-13.963636 4.654545-43.054545 17.454545-37.236364 39.563636 4.654545 18.618182 19.781818 29.090909 34.909091 36.072727 5.818182 3.490909 18.618182 4.654545 22.109091 10.472727-12.8 9.309091-24.436364 27.927273-30.254545 43.054546-3.490909 8.145455-4.654545 25.6-9.309091 31.418182-8.145455-11.636364-31.418182-36.072727-51.2-32.581818-3.490909 4.654545-6.981818 9.309091-9.309091 15.127272-4.654545 15.127273-2.327273 39.563636 2.327273 53.527273 8.145455 29.090909 16.290909 50.036364 31.418181 70.981818 4.654545 6.981818 11.636364 11.636364 16.290909 18.618182-9.309091 9.309091-6.981818 37.236364-1.163636 48.872727 3.490909 8.145455 9.309091 6.981818 10.472727 19.781818-2.327273 3.490909 0 8.145455-1.163636 12.8-4.654545 20.945455 3.490909 46.545455 9.309091 62.836364 19.781818 52.363636 53.527273 89.6 103.563636 110.545455 11.636364 4.654545 25.6 8.145455 38.4 10.472727 5.818182 1.163636 11.636364 0 16.290909 2.327273 117.527273 1.163636 176.872727-60.509091 198.981819-154.763637 3.490909-15.127273 0-34.909091 0-50.036363 26.763636-5.818182 32.581818-59.345455 10.472727-74.472728v-1.163636c8.145455-13.963636 18.618182-27.927273 25.6-43.054545 6.981818-16.290909 9.309091-34.909091 13.963636-54.69091 4.654545-15.127273-2.327273-50.036364-9.309091-54.690909z"  horiz-adv-x="1024" />

    
    <glyph glyph-name="rizhi1" unicode="&#59236;" d="M950.857143 33.426286v-87.625143C950.857143-95.707429 913.92-128 872.338286-128H151.661714C110.116571-128 73.142857-95.707429 73.142857-54.198857V822.198857C73.142857 863.707429 110.08 896 151.661714 896h720.676572C913.883429 896 950.857143 863.707429 950.857143 822.198857v-788.772571z m-194.011429 95.744H267.154286a36.205714 36.205714 0 0 1-36.937143-36.534857c0-18.285714 18.468571-36.498286 36.937143-36.498286h489.691428a36.205714 36.205714 0 0 1 36.937143 36.498286c0 22.820571-13.860571 36.534857-36.937143 36.534857zM433.481143 669.988571h64.658286c32.329143 0 55.442286-9.216 73.910857-27.684571 13.897143-18.432 23.113143-41.508571 23.113143-73.801143 0-32.292571-9.252571-55.332571-23.113143-73.801143-13.860571-18.432-46.189714-23.04-78.518857-23.04H433.481143V669.988571z m60.050286-272.164571c55.442286 0 101.632 18.468571 133.961142 50.761143A187.245714 187.245714 0 0 1 673.645714 573.074286c0 50.761143-13.860571 92.269714-41.581714 119.954285-32.329143 32.256-73.874286 50.724571-133.961143 50.724572H396.507429c-23.076571 0-41.581714-18.468571-41.581715-36.937143v-272.091429c0-23.076571 18.505143-36.937143 41.581715-36.937142h97.024z m263.314285-122.587429H267.154286a36.205714 36.205714 0 0 1-36.937143-36.534857c0-18.285714 18.468571-36.498286 36.937143-36.498285h489.691428a36.205714 36.205714 0 0 1 36.937143 36.498285c0 22.820571-13.860571 36.534857-36.937143 36.534857z"  horiz-adv-x="1024" />

    
    <glyph glyph-name="pinglun1" unicode="&#58647;" d="M844.8 822.4H179.2c-63.6 0-115.1-51.6-115.2-115.2v-454.9c0-63.5 51.7-115.2 115.2-115.2h352l180.3-180.3c7.5-7.5 17.3-11.2 27.2-11.2 9.8 0 19.7 3.7 27.2 11.2 15 15 15 39.3 0 54.3l-184 184c-12 12.1-28.3 18.8-45.3 18.8H179.2c-21.2 0-38.4 17.2-38.4 38.4V707.2c0 21.2 17.2 38.4 38.4 38.4h665.6c21.2 0 38.4-17.2 38.4-38.4v-454.9c0-21.2-17.2-38.4-38.4-38.4h-87c-21.2 0-38.4-17.2-38.4-38.4s17.2-38.4 38.4-38.4h87c63.5 0 115.2 51.7 115.2 115.2V707.2c0 63.5-51.7 115.2-115.2 115.2z"  horiz-adv-x="1024" />

    
    <glyph glyph-name="pinglun2" unicode="&#58633;" d="M949.570847 683.326273l-41.801035-41.517579L768.565377 780.156622l41.801035 41.459251c15.340383 15.283078 39.522132 16.084327 53.892421 1.768273l87.024006-86.454024C965.710432 722.6171380000001 964.91123 698.606281 949.570847 683.326273L949.570847 683.326273zM580.373227 316.40550900000005L441.169815 454.755484l306.238706 304.299541 139.205459-138.348951L580.373227 316.40550900000005 580.373227 316.40550900000005zM560.984644 297.13051399999995l-194.863083-55.314817 55.659671 193.666838L560.984644 297.13051399999995 560.984644 297.13051399999995zM236.551554 717.8812760000001c-48.13223 0-87.081311-38.949081-87.081311-87.024006l0-522.372232c0-48.062646 38.962384-87.026052 87.026052-87.026052l522.485819 0c48.063669 0 87.028099 38.963407 87.028099 87.028099L846.010213 456.751954l87.079264 87.028099 0-464.321094c0-80.124875-64.954361-145.078213-145.078213-145.078213L207.468169-65.61925399999996c-80.124875 0-145.078213 64.954361-145.078213 145.078213L62.389956 659.885398c0 80.124875 64.954361 145.078213 145.078213 145.078213l464.435705 0-87.083357-87.083357L236.551554 717.880253 236.551554 717.8812760000001z"  horiz-adv-x="1024" />

    
    <glyph glyph-name="youxiang7" unicode="&#58902;" d="M1239.808 835.413333L625.834667 435.2 39.936 835.072A170.325333 170.325333 0 0 0 170.666667 896h938.666666c52.309333 0 99.157333-23.552 130.474667-60.586667z m37.12-77.653333c2.048-10.496 3.072-21.333333 3.072-32.426667v-682.666666a170.666667 170.666667 0 0 0-170.666667-170.666667H170.666667a170.666667 170.666667 0 0 0-170.666667 170.666667V725.333333c0 10.837333 1.024 21.333333 2.901333 31.658667L624.725333 332.8l652.202667 424.96z"  horiz-adv-x="1280" />

    
    <glyph glyph-name="weibo2" unicode="&#58903;" d="M871.936 301.568c-23.552 70.144-95.744 95.744-112.128 97.28-16.384 1.536-31.232 10.752-20.48 29.184 10.752 18.432 31.232 72.704-7.68 110.592-38.912 38.4-123.392 23.552-183.296-1.024-59.904-24.576-56.32-7.68-54.784 9.216 2.048 17.92 34.304 117.248-64.512 129.536-129.024 15.872-294.912-142.848-353.28-234.496C-12.8 303.616 1.536 210.432 1.536 210.432h0.512C13.312 82.432 204.8-20.48 439.296-20.48c201.728 0 371.2 75.776 421.376 179.2 0 0 0 0.512 0.512 1.024 5.12 11.264 9.216 22.528 11.776 34.304 7.168 27.648 12.288 68.096-1.024 107.52zM410.112 35.84c-166.912 0-302.08 89.088-302.08 198.656s135.168 198.656 302.08 198.656 302.08-89.088 302.08-198.656-135.168-198.656-302.08-198.656zM821.248 476.16c3.072-1.536 6.144-2.048 9.728-2.048 9.728 0 18.944 5.632 22.528 14.848 6.144 14.848 9.728 30.208 9.728 46.592C863.232 601.6 808.96 655.36 742.4 655.36c-16.384 0-32.256-3.072-47.104-9.216-12.288-5.12-18.432-19.456-12.8-31.744 5.12-12.288 19.456-17.92 32.256-12.8 8.704 3.584 18.432 5.632 28.16 5.632 39.424 0 71.68-31.744 71.68-71.168 0-9.728-2.048-18.944-5.632-27.648-5.12-12.288 0.512-26.624 12.288-31.744-0.512-0.512-0.512-0.512 0-0.512zM740.352 805.376c-27.648 0-54.784-4.096-80.896-11.776-19.456-5.632-30.72-26.112-25.088-45.568 5.632-19.456 26.112-30.208 45.568-24.576 19.456 5.632 39.424 8.704 59.904 8.704 115.712 0 209.92-93.184 209.92-207.872 0-20.48-3.072-40.96-8.704-60.416-5.632-19.456 5.12-39.936 24.576-45.568 3.584-1.024 7.168-1.536 10.752-1.536 15.872 0 30.208 10.24 35.328 26.112 8.192 26.112 12.288 53.76 12.288 81.408 0 155.136-127.488 281.088-283.648 281.088zM382.464 360.448c-89.088 0-161.28-62.464-161.28-139.776 0-77.312 72.192-139.776 161.28-139.776s161.28 62.464 161.28 139.776c-0.512 77.312-72.704 139.776-161.28 139.776z m-52.736-230.912c-31.232 0-56.32 25.088-56.32 55.808s25.088 55.808 56.32 55.808 56.32-25.088 56.32-55.808-25.088-55.808-56.32-55.808zM435.2 230.912c-6.656-11.776-20.48-16.384-30.208-10.752-9.728 5.632-12.288 19.968-5.632 31.744 6.656 11.776 20.48 16.384 30.208 10.752 9.728-6.144 12.288-20.48 5.632-31.744z"  horiz-adv-x="1024" />

    
    <glyph glyph-name="youxiang8" unicode="&#58657;" d="M896.4096 131.3792l-229.1712 266.24 229.4784 238.1824a48.64 48.64 0 0 0 2.7648-15.4624v-472.6784a48.3328 48.3328 0 0 0-3.072-16.2816z m-304.128 268.8l-75.9808-59.4944-75.9808 59.392-38.5024 30.1056-230.6048 238.7968a54.272 54.272 0 0 0 14.848 2.3552h660.48a55.5008 55.5008 0 0 0 14.848-2.3552L630.6816 430.2848l-38.4-30.1056zM136.192 131.3792a49.3568 49.3568 0 0 0-3.072 16.2816V620.3392a48.64 48.64 0 0 0 2.7648 15.4624l229.5808-237.8752z m380.1088 148.3776l112.64 88.1664 231.8336-269.1072a55.7056 55.7056 0 0 0-14.2336-2.1504h-660.48a54.3744 54.3744 0 0 0-14.2336 2.1504l232.1408 269.0048z m0 0"  horiz-adv-x="1024" />

    
    <glyph glyph-name="liuyanban1" unicode="&#58885;" d="M893.952 325.632c0 30.208 23.552 54.784 52.224 54.784s52.224-24.576 52.224-54.784V66.56c0-80.384-61.952-145.92-138.752-145.92l-694.784-1.536C88.064-80.896 25.6-15.36 25.6 65.024V704C25.6 784.384 88.064 849.92 164.352 849.92H435.2c28.672 0 52.224-24.576 52.224-54.784S463.872 740.352 435.2 740.352H164.352c-18.944 0-34.816-16.384-34.816-36.352v-638.464c0-19.968 15.36-36.352 34.816-36.352l694.784 1.536c18.944 0 34.816 16.384 34.816 36.352v258.56z m-341.504 5.12c-17.92-22.528-50.688-26.112-73.216-8.192-22.528 17.92-26.112 50.688-8.192 73.216l347.648 434.176c17.92 22.528 50.688 26.112 73.216 8.192 22.528-17.92 26.112-50.688 8.192-73.216l-347.648-434.176z"  horiz-adv-x="1024" />

    
    <glyph glyph-name="weixin2" unicode="&#58904;" d="M1253.711694 239.870424c0 177.433625-177.56631 321.961257-376.893035 321.961257-211.13573 0-377.390606-144.660317-377.390606-321.961257s166.254875-321.961257 377.390606-321.961257a560.596048 560.596048 0 0 1 133.216197 22.257986l121.639391-66.608099-33.436735 110.825526c89.098283 66.840298 155.441011 155.474182 155.441011 255.419502z m-493.656236 49.259476a50.254616 50.254616 0 1 0 50.254617 50.254616 50.254616 50.254616 0 0 0-50.254617-50.254616z m244.174409 0.364885a50.254616 50.254616 0 1 0 50.254616 50.254616 50.254616 50.254616 0 0 0-50.254616-50.254616z m0 0M443.766505 894.739488C199.824295 894.739488 0 728.484613 0 517.348882c0-121.904762 66.342728-221.949595 177.56631-299.603757L133.216197 84.263557l155.076126 77.786848a762.642825 762.642825 0 0 1 155.474182-22.257985c13.931973 0 27.764431 0.630256 41.464204 1.758082a330.287269 330.287269 0 0 0-13.699773 92.879819c0 193.919793 166.520246 351.251571 377.25792 351.251571a369.993392 369.993392 0 0 0 42.724717-2.653709C853.067962 761.722319 661.901393 894.573631 443.700162 894.573631z m-149.038938-304.513119A60.338711 60.338711 0 1 0 355.033107 650.531908a60.338711 60.338711 0 0 0-60.30554-60.305539z m309.920052 0A60.338711 60.338711 0 1 0 664.98633 650.531908a60.338711 60.338711 0 0 0-60.338711-60.305539z m0 0"  horiz-adv-x="1255" />

    
    <glyph glyph-name="shijianzhou" unicode="&#58888;" d="M267.130435 829.217391h801.391304v-133.565217H267.130435zM267.130435 606.608696h445.217391v-133.565218H267.130435zM267.130435 294.956522h801.391304v-133.565218H267.130435zM267.130435 72.347826h445.217391v-133.565217H267.130435zM44.521739 896h89.043478v-1024H44.521739zM0 205.913043h178.086957v-178.086956H0zM0 740.173913h178.086957v-178.086956H0z"  horiz-adv-x="1068" />

    
    <glyph glyph-name="shijianzhou1" unicode="&#58892;" d="M440.32 657.066667H960v-73.216H440.32V657.024z m-0.853333-376.192H960v-73.216H439.466667v73.216zM311.04 189.269333c0 54.229333-36.181333 100.181333-86.058667 115.754667V464.213333c49.834667 15.616 85.930667 61.525333 85.930667 115.712 0 54.186667-36.096 100.053333-85.930667 115.669334V896H150.186667v-200.32C100.224 680.106667 64 634.197333 64 579.925333s36.224-100.224 86.186667-115.754666v-159.146667C100.266667 289.450667 64.085333 243.498667 64.085333 189.269333c0-54.058667 35.968-99.84 85.632-115.541333V-128h74.752v201.386667c50.133333 15.488 86.528 61.525333 86.528 115.882666zM125.269333 579.968c0 33.536 27.690667 60.757333 61.824 60.757333s61.824-27.221333 61.824-60.757333c0-33.578667-27.690667-60.8-61.824-60.8s-61.824 27.221333-61.824 60.8z m61.909334-451.413333c-34.133333 0-61.781333 27.178667-61.781334 60.757333 0 33.578667 27.648 60.8 61.781334 60.8 34.133333 0 61.866667-27.221333 61.866666-60.8s-27.733333-60.8-61.866666-60.8zM438.656 547.413333h371.328v-73.173333H438.613333zM437.845333 171.264h373.205334V98.133333H437.845333z"  horiz-adv-x="1024" />

    
    <glyph glyph-name="biji11" unicode="&#61119;" d="M933.133617 896H179.5387C118.591488 896 69.216532 845.226729 69.216532 782.447244v-796.894439c0-62.68305 49.374956-113.552756 110.322168-113.552757h745.687209a29.509251 29.509251 0 0 1 29.557469 29.557469V874.350239A21.794414 21.794414 0 0 1 933.133617 896z m-737.731283-62.68305h218.474539v-415.877929l-90.793988 67.504823-15.381456 11.572255-15.71898-11.186513-96.435462-69.28888z m703.930654-904.323544H179.394047s-56.173657 9.884635-55.016431 56.94514c0 28.400244 24.735696 56.848705 55.016431 56.848705h719.938941z m0 0"  horiz-adv-x="1024" />

    
    <glyph glyph-name="dianzan" unicode="&#58634;" d="M884.875894 472.856747L646.970506 472.856747c92.185562 340.464205-63.516616 357.853247-63.516616 357.853247-65.993017 0-52.312436-52.182476-57.3031-60.881602 0-166.502152-176.849824-296.971645-176.849824-296.971645l0-472.171899c0-46.607504 63.516616-63.393819 88.433098-63.393819l357.452111 0c33.641191 0 61.036122 88.224344 61.036122 88.224344 88.434122 300.70569 88.434122 390.177444 88.434122 390.177444C944.657442 477.820805 884.875894 472.856747 884.875894 472.856747L884.875894 472.856747 884.875894 472.856747zM884.875894 472.856747M251.671415 472.700181L109.214912 472.700181c-29.420053 0-29.873378-28.89612-29.873378-28.89612l29.420053-476.202703c0-30.309306 30.361495-30.309306 30.361495-30.309306L262.420223-62.70794799999999c25.686009 0 25.458835 20.049638 25.458835 20.049638L287.879058 436.588729C287.879058 473.162716 251.671415 472.700181 251.671415 472.700181L251.671415 472.700181 251.671415 472.700181zM251.671415 472.700181"  horiz-adv-x="1024" />

    
    <glyph glyph-name="shijianzhou2" unicode="&#58893;" d="M222.7712 284.7744a140.4416 140.4416 0 0 1-89.6 4.3008V478.8736a140.8 140.8 0 0 1 89.6 4.3008v-198.4z m0-262.4V-128h-89.6v146.0736a140.8 140.8 0 0 1 89.6 4.3008z m0 723.2a140.4416 140.4416 0 0 1-89.6 4.352V896h89.6v-150.4256z m-51.2-246.3744a115.2 115.2 0 1 0 0 230.4 115.2 115.2 0 0 0 0-230.4z m0-460.8a115.2 115.2 0 1 0 0 230.4 115.2 115.2 0 0 0 0-230.4z m256 691.2h563.2V640h-563.2V729.6z m0-460.8h563.2V179.2h-563.2v89.6z m0 281.6h422.4V460.8h-422.4V550.4z m0-473.6h422.4v-89.6h-422.4V76.8z"  horiz-adv-x="1024" />

    
    <glyph glyph-name="yidu" unicode="&#58896;" d="M1023.186 365.445l-0.087-1.26c-0.02-0.214-0.046-0.424-0.056-0.624-0.016-0.317-0.077-0.625-0.123-0.927a14.065 14.065 0 0 0-0.139-1.075c0-0.04-0.015-0.082-0.015-0.128a38.912 38.912 0 0 0-10.511-21.166c-10.547-12.795-22.078-24.801-33.67-36.588-62.658-63.626-134.573-120.36-213.293-161.54-50.34-26.307-104.075-47.52-159.832-57.734-61.312-11.207-122.68-10.644-183.68 2.622-105.518 22.953-201.113 79.943-284.702 148.09-38.815 31.632-76.985 66.243-109.061 105.155-14.045 17.03-14.045 37.202 0 54.216 10.542 12.784 22.077 24.811 33.669 36.577C124.344 494.7 196.255 551.45 274.99 592.62c50.314 26.29 104.054 47.523 159.82 57.728 61.308 11.207 122.676 10.65 183.666-2.601 105.523-22.948 201.113-79.96 284.702-148.107 38.81-31.631 76.974-66.252 109.066-105.17a38.917 38.917 0 0 0 10.522-21.294c0.062-0.338 0.097-0.706 0.138-1.065 0.036-0.302 0.092-0.604 0.123-0.921 0.016-0.2 0.03-0.415 0.057-0.63 0.025-0.435 0.071-0.835 0.081-1.275 0.031-0.64 0.077-1.265 0.077-1.91-0.005-0.655-0.03-1.295-0.056-1.93zM520.36 563.81c-104.156 0-188.575-84.434-188.575-188.574 0-104.157 84.419-188.575 188.575-188.575 104.136 0 188.575 84.418 188.575 188.575-0.005 104.14-84.44 188.574-188.575 188.574z m0-282.864c-52.08 0-94.29 42.214-94.29 94.29 0 52.07 42.21 94.284 94.29 94.284 52.07 0 94.285-42.214 94.285-94.284 0-52.076-42.215-94.29-94.285-94.29z"  horiz-adv-x="1024" />

    
    <glyph glyph-name="icon-search" unicode="&#58635;" d="M240.776 655.1279999999999A302.952 302.952 0 0 1 157.328 384c18.048 81.912 60.48 161.952 126.576 228.096C350.048 678.264 430.088 720.672 512 738.72c-95.28 17.952-197.52-9.864-271.224-83.592zM959.6 93.26400000000001l-114.096 114.096a110.64 110.64 0 0 1-87 31.992c107.304 155.208 91.8 369.744-46.392 507.96-155.568 155.616-407.856 155.616-563.472 0-155.568-155.616-155.568-407.928 0-563.544 138.192-138.216 352.56-153.6 507.864-46.296-2.4-31.2 8.304-63.312 31.992-87l114.096-114.12c43.2-43.104 113.784-43.104 156.888 0 43.32 43.104 43.32 113.712 0.12 156.912zM665.84 230.15999999999997c-130.008-130.008-340.68-130.008-470.64 0-130.008 130.008-130.008 340.728 0 470.736 129.96 130.008 340.632 130.008 470.64 0 129.984-129.912 129.984-340.728 0-470.736z"  horiz-adv-x="1024" />

    
    </font>
</defs>
</svg>
